<?xml version="1.0" standalone="no"?>
 <!DOCTYPE svg PUBLIC "-//W3C//DTD SVG 1.1//EN" 
 "http://www.w3.org/Graphics/SVG/1.1/DTD/svg11.dtd"> 
<svg xmlns="http://www.w3.org/2000/svg" version="1.1" 
    width="41.9989cm" height="29.7002cm" viewBox="0 0 165350 116930 ">
<title>SVG Picture created as eeg-B_Cu.svg date 2015/08/08 04:52:31 </title>
  <desc>Picture generated by PCBNEW </desc>
<g style="fill:#000000; fill-opacity:1;stroke:#000000; stroke-opacity:1;
stroke-linecap:round; stroke-linejoin:round; "
 transform="translate(0 0) scale(1 1)">
</g>
<g style="fill:#000000; fill-opacity:0.0; 
stroke:#000000; stroke-width:39.3701; stroke-opacity:1; 
stroke-linecap:round; stroke-linejoin:round;">
<path d="M4000 4000
L161350 4000
L161350 112930
L4000 112930
L4000 4000
" />
<path d="M4700 4700
L160650 4700
L160650 112230
L4700 112230
L4700 4700
" />
<path d="M26470 4000
L26470 4700
" />
<path d="M15382 4552
L15097 4552
" />
<path d="M15240 4552
L15240 4052
L15192 4123
L15144 4171
L15097 4195
" />
<path d="M26470 112930
L26470 112230
" />
<path d="M15382 112782
L15097 112782
" />
<path d="M15240 112782
L15240 112282
L15192 112353
L15144 112401
L15097 112425
" />
<path d="M48940 4000
L48940 4700
" />
<path d="M37567 4100
L37590 4076
L37638 4052
L37757 4052
L37805 4076
L37829 4100
L37852 4147
L37852 4195
L37829 4266
L37543 4552
L37852 4552
" />
<path d="M48940 112930
L48940 112230
" />
<path d="M37567 112330
L37590 112306
L37638 112282
L37757 112282
L37805 112306
L37829 112330
L37852 112377
L37852 112425
L37829 112496
L37543 112782
L37852 112782
" />
<path d="M71410 4000
L71410 4700
" />
<path d="M60013 4052
L60322 4052
L60156 4242
L60227 4242
L60275 4266
L60299 4290
L60322 4338
L60322 4457
L60299 4504
L60275 4528
L60227 4552
L60084 4552
L60037 4528
L60013 4504
" />
<path d="M71410 112930
L71410 112230
" />
<path d="M60013 112282
L60322 112282
L60156 112472
L60227 112472
L60275 112496
L60299 112520
L60322 112568
L60322 112687
L60299 112734
L60275 112758
L60227 112782
L60084 112782
L60037 112758
L60013 112734
" />
<path d="M93880 4000
L93880 4700
" />
<path d="M82745 4219
L82745 4552
" />
<path d="M82626 4028
L82507 4385
L82816 4385
" />
<path d="M93880 112930
L93880 112230
" />
<path d="M82745 112449
L82745 112782
" />
<path d="M82626 112258
L82507 112615
L82816 112615
" />
<path d="M116350 4000
L116350 4700
" />
<path d="M105239 4052
L105000 4052
L104977 4290
L105000 4266
L105048 4242
L105167 4242
L105215 4266
L105239 4290
L105262 4338
L105262 4457
L105239 4504
L105215 4528
L105167 4552
L105048 4552
L105000 4528
L104977 4504
" />
<path d="M116350 112930
L116350 112230
" />
<path d="M105239 112282
L105000 112282
L104977 112520
L105000 112496
L105048 112472
L105167 112472
L105215 112496
L105239 112520
L105262 112568
L105262 112687
L105239 112734
L105215 112758
L105167 112782
L105048 112782
L105000 112758
L104977 112734
" />
<path d="M138820 4000
L138820 4700
" />
<path d="M127685 4052
L127590 4052
L127542 4076
L127518 4100
L127470 4171
L127447 4266
L127447 4457
L127470 4504
L127494 4528
L127542 4552
L127637 4552
L127685 4528
L127709 4504
L127732 4457
L127732 4338
L127709 4290
L127685 4266
L127637 4242
L127542 4242
L127494 4266
L127470 4290
L127447 4338
" />
<path d="M138820 112930
L138820 112230
" />
<path d="M127685 112282
L127590 112282
L127542 112306
L127518 112330
L127470 112401
L127447 112496
L127447 112687
L127470 112734
L127494 112758
L127542 112782
L127637 112782
L127685 112758
L127709 112734
L127732 112687
L127732 112568
L127709 112520
L127685 112496
L127637 112472
L127542 112472
L127494 112496
L127470 112520
L127447 112568
" />
<path d="M149893 4052
L150226 4052
L150012 4552
" />
<path d="M149893 112282
L150226 112282
L150012 112782
" />
<path d="M4000 25780
L4700 25780
" />
<path d="M4230 14949
L4469 14949
" />
<path d="M4183 15092
L4350 14592
L4516 15092
" />
<path d="M161350 25780
L160650 25780
" />
<path d="M160880 14949
L161119 14949
" />
<path d="M160833 15092
L161000 14592
L161166 15092
" />
<path d="M4000 47560
L4700 47560
" />
<path d="M4385 36610
L4457 36634
L4480 36658
L4504 36705
L4504 36777
L4480 36824
L4457 36848
L4409 36872
L4219 36872
L4219 36372
L4385 36372
L4433 36396
L4457 36420
L4480 36467
L4480 36515
L4457 36562
L4433 36586
L4385 36610
L4219 36610
" />
<path d="M161350 47560
L160650 47560
" />
<path d="M161035 36610
L161107 36634
L161130 36658
L161154 36705
L161154 36777
L161130 36824
L161107 36848
L161059 36872
L160869 36872
L160869 36372
L161035 36372
L161083 36396
L161107 36420
L161130 36467
L161130 36515
L161107 36562
L161083 36586
L161035 36610
L160869 36610
" />
<path d="M4000 69340
L4700 69340
" />
<path d="M4504 58604
L4480 58628
L4409 58652
L4361 58652
L4290 58628
L4242 58580
L4219 58533
L4195 58438
L4195 58366
L4219 58271
L4242 58223
L4290 58176
L4361 58152
L4409 58152
L4480 58176
L4504 58200
" />
<path d="M161350 69340
L160650 69340
" />
<path d="M161154 58604
L161130 58628
L161059 58652
L161011 58652
L160940 58628
L160892 58580
L160869 58533
L160845 58438
L160845 58366
L160869 58271
L160892 58223
L160940 58176
L161011 58152
L161059 58152
L161130 58176
L161154 58200
" />
<path d="M4000 91120
L4700 91120
" />
<path d="M4219 80432
L4219 79932
L4338 79932
L4409 79956
L4457 80003
L4480 80051
L4504 80146
L4504 80218
L4480 80313
L4457 80360
L4409 80408
L4338 80432
L4219 80432
" />
<path d="M161350 91120
L160650 91120
" />
<path d="M160869 80432
L160869 79932
L160988 79932
L161059 79956
L161107 80003
L161130 80051
L161154 80146
L161154 80218
L161130 80313
L161107 80360
L161059 80408
L160988 80432
L160869 80432
" />
<path d="M4242 101950
L4409 101950
" />
<path d="M4480 102212
L4242 102212
L4242 101712
L4480 101712
" />
<path d="M160892 101950
L161059 101950
" />
<path d="M161130 102212
L160892 102212
L160892 101712
L161130 101712
" />
<path d="M127800 110672
L127875 110072
L128017 110072
L128100 110101
L128150 110158
L128171 110215
L128185 110330
L128175 110415
L128132 110530
L128096 110587
L128032 110644
L127942 110672
L127800 110672
" />
<path d="M128657 110672
L128696 110358
L128675 110301
L128621 110272
L128507 110272
L128446 110301
" />
<path d="M128660 110644
L128600 110672
L128457 110672
L128403 110644
L128382 110587
L128389 110530
L128425 110472
L128485 110444
L128628 110444
L128689 110415
" />
<path d="M128907 110272
L129135 110272
" />
<path d="M129017 110072
L128953 110587
L128975 110644
L129028 110672
L129085 110672
" />
<path d="M129517 110644
L129457 110672
L129342 110672
L129289 110644
L129267 110587
L129296 110358
L129332 110301
L129392 110272
L129507 110272
L129560 110301
L129582 110358
L129575 110415
L129282 110472
" />
<path d="M129807 110615
L129832 110644
L129800 110672
L129775 110644
L129807 110615
L129800 110672
" />
<path d="M129846 110301
L129871 110330
L129839 110358
L129814 110330
L129846 110301
L129839 110358
" />
<path d="M130671 110330
L130617 110301
L130592 110272
L130571 110215
L130575 110187
L130610 110130
L130642 110101
L130703 110072
L130817 110072
L130871 110101
L130896 110130
L130917 110187
L130914 110215
L130878 110272
L130846 110301
L130785 110330
L130671 110330
L130610 110358
L130578 110387
L130542 110444
L130528 110558
L130550 110615
L130575 110644
L130628 110672
L130742 110672
L130803 110644
L130835 110615
L130871 110558
L130885 110444
L130864 110387
L130839 110358
L130785 110330
" />
<path d="M131828 110672
L131867 110358
L131846 110301
L131792 110272
L131678 110272
L131617 110301
" />
<path d="M131832 110644
L131771 110672
L131628 110672
L131575 110644
L131553 110587
L131560 110530
L131596 110472
L131657 110444
L131800 110444
L131860 110415
" />
<path d="M132421 110272
L132371 110672
" />
<path d="M132164 110272
L132125 110587
L132146 110644
L132200 110672
L132285 110672
L132346 110644
L132378 110615
" />
<path d="M132964 110272
L132903 110758
L132867 110815
L132835 110844
L132775 110872
L132689 110872
L132635 110844
" />
<path d="M132917 110644
L132857 110672
L132742 110672
L132689 110644
L132664 110615
L132642 110558
L132664 110387
L132700 110330
L132732 110301
L132792 110272
L132907 110272
L132960 110301
" />
<path d="M133696 110130
L133728 110101
L133789 110072
L133932 110072
L133985 110101
L134010 110130
L134032 110187
L134025 110244
L133985 110330
L133600 110672
L133971 110672
" />
<path d="M134417 110072
L134475 110072
L134528 110101
L134553 110130
L134575 110187
L134589 110301
L134571 110444
L134528 110558
L134492 110615
L134460 110644
L134400 110672
L134342 110672
L134289 110644
L134264 110615
L134242 110558
L134228 110444
L134246 110301
L134289 110187
L134325 110130
L134357 110101
L134417 110072
" />
<path d="M135114 110672
L134771 110672
" />
<path d="M134942 110672
L135017 110072
L134950 110158
L134885 110215
L134825 110244
" />
<path d="M135732 110072
L135446 110072
L135382 110358
L135414 110330
L135475 110301
L135617 110301
L135671 110330
L135696 110358
L135717 110415
L135700 110558
L135664 110615
L135632 110644
L135571 110672
L135428 110672
L135375 110644
L135350 110615
" />
<path d="M119392 111872
L119392 111272
" />
<path d="M119735 111872
L119478 111530
" />
<path d="M119735 111272
L119392 111615
" />
<path d="M119992 111872
L119992 111472
" />
<path d="M119992 111272
L119964 111301
L119992 111330
L120021 111301
L119992 111272
L119992 111330
" />
<path d="M120621 111815
L120592 111844
L120507 111872
L120450 111872
L120364 111844
L120307 111787
L120278 111730
L120250 111615
L120250 111530
L120278 111415
L120307 111358
L120364 111301
L120450 111272
L120507 111272
L120592 111301
L120621 111330
" />
<path d="M121135 111872
L121135 111558
L121107 111501
L121050 111472
L120935 111472
L120878 111501
" />
<path d="M121135 111844
L121078 111872
L120935 111872
L120878 111844
L120850 111787
L120850 111730
L120878 111672
L120935 111644
L121078 111644
L121135 111615
" />
<path d="M121678 111872
L121678 111272
" />
<path d="M121678 111844
L121621 111872
L121507 111872
L121450 111844
L121421 111815
L121392 111758
L121392 111587
L121421 111530
L121450 111501
L121507 111472
L121621 111472
L121678 111501
" />
<path d="M122421 111558
L122621 111558
" />
<path d="M122707 111872
L122421 111872
L122421 111272
L122707 111272
" />
<path d="M122964 111815
L122992 111844
L122964 111872
L122935 111844
L122964 111815
L122964 111872
" />
<path d="M123249 111872
L123249 111272
L123392 111272
L123478 111301
L123535 111358
L123564 111415
L123592 111530
L123592 111615
L123564 111730
L123535 111787
L123478 111844
L123392 111872
L123249 111872
" />
<path d="M123849 111815
L123878 111844
L123849 111872
L123821 111844
L123849 111815
L123849 111872
" />
<path d="M124107 111701
L124392 111701
" />
<path d="M124049 111872
L124249 111272
L124449 111872
" />
<path d="M124649 111815
L124678 111844
L124649 111872
L124621 111844
L124649 111815
L124649 111872
" />
<path d="M152942 110672
L152778 110387
" />
<path d="M152600 110672
L152675 110072
L152903 110072
L152957 110101
L152982 110130
L153003 110187
L152992 110272
L152957 110330
L152925 110358
L152864 110387
L152635 110387
" />
<path d="M153432 110644
L153371 110672
L153257 110672
L153203 110644
L153182 110587
L153210 110358
L153246 110301
L153307 110272
L153421 110272
L153475 110301
L153496 110358
L153489 110415
L153196 110472
" />
<path d="M153707 110272
L153800 110672
L153992 110272
" />
<path d="M154178 110615
L154203 110644
L154171 110672
L154146 110644
L154178 110615
L154171 110672
" />
<path d="M154217 110301
L154242 110330
L154210 110358
L154185 110330
L154217 110301
L154210 110358
" />
<path d="M119364 110644
L119450 110672
L119592 110672
L119650 110644
L119678 110615
L119707 110558
L119707 110501
L119678 110444
L119650 110415
L119592 110387
L119478 110358
L119421 110330
L119392 110301
L119364 110244
L119364 110187
L119392 110130
L119421 110101
L119478 110072
L119621 110072
L119707 110101
" />
<path d="M119964 110672
L119964 110272
" />
<path d="M119964 110072
L119935 110101
L119964 110130
L119992 110101
L119964 110072
L119964 110130
" />
<path d="M120192 110272
L120507 110272
L120192 110672
L120507 110672
" />
<path d="M120964 110644
L120907 110672
L120792 110672
L120735 110644
L120707 110587
L120707 110358
L120735 110301
L120792 110272
L120907 110272
L120964 110301
L120992 110358
L120992 110415
L120707 110472
" />
<path d="M121250 110615
L121278 110644
L121250 110672
L121221 110644
L121250 110615
L121250 110672
" />
<path d="M121250 110301
L121278 110330
L121250 110358
L121221 110330
L121250 110301
L121250 110358
" />
<path d="M121964 110501
L122250 110501
" />
<path d="M121907 110672
L122107 110072
L122307 110672
" />
<path d="M122450 110072
L122821 110072
L122621 110301
L122707 110301
L122764 110330
L122792 110358
L122821 110415
L122821 110558
L122792 110615
L122764 110644
L122707 110672
L122535 110672
L122478 110644
L122450 110615
" />
<path d="M152592 111872
L152592 111272
" />
<path d="M153135 111872
L153135 111272
" />
<path d="M153135 111844
L153078 111872
L152964 111872
L152907 111844
L152878 111815
L152850 111758
L152850 111587
L152878 111530
L152907 111501
L152964 111472
L153078 111472
L153135 111501
" />
<path d="M153421 111815
L153450 111844
L153421 111872
L153392 111844
L153421 111815
L153421 111872
" />
<path d="M153421 111501
L153450 111530
L153421 111558
L153392 111530
L153421 111501
L153421 111558
" />
<path d="M154478 111872
L154135 111872
" />
<path d="M154307 111872
L154307 111272
L154249 111358
L154192 111415
L154135 111444
" />
<path d="M155164 111244
L154650 112015
" />
<path d="M155678 111872
L155335 111872
" />
<path d="M155507 111872
L155507 111272
L155449 111358
L155392 111415
L155335 111444
" />
<path d="M119389 108872
L119732 108872
" />
<path d="M119485 109472
L119560 108872
" />
<path d="M119857 109472
L119907 109072
" />
<path d="M119932 108872
L119900 108901
L119925 108930
L119957 108901
L119932 108872
L119925 108930
" />
<path d="M120107 109072
L120335 109072
" />
<path d="M120217 108872
L120153 109387
L120175 109444
L120228 109472
L120285 109472
" />
<path d="M120571 109472
L120517 109444
L120496 109387
L120560 108872
" />
<path d="M121032 109444
L120971 109472
L120857 109472
L120803 109444
L120782 109387
L120810 109158
L120846 109101
L120907 109072
L121021 109072
L121075 109101
L121096 109158
L121089 109215
L120796 109272
" />
<path d="M121321 109415
L121346 109444
L121314 109472
L121289 109444
L121321 109415
L121314 109472
" />
<path d="M121360 109101
L121385 109130
L121353 109158
L121328 109130
L121360 109101
L121353 109158
" />
<path d="M119592 106758
L119392 106758
" />
<path d="M119392 107072
L119392 106472
L119678 106472
" />
<path d="M119907 107072
L119907 106672
" />
<path d="M119907 106472
L119878 106501
L119907 106530
L119935 106501
L119907 106472
L119907 106530
" />
<path d="M120278 107072
L120221 107044
L120192 106987
L120192 106472
" />
<path d="M120735 107044
L120678 107072
L120564 107072
L120507 107044
L120478 106987
L120478 106758
L120507 106701
L120564 106672
L120678 106672
L120735 106701
L120764 106758
L120764 106815
L120478 106872
" />
<path d="M121021 107015
L121050 107044
L121021 107072
L120992 107044
L121021 107015
L121021 107072
" />
<path d="M121021 106701
L121050 106730
L121021 106758
L120992 106730
L121021 106701
L121021 106758
" />
<path d="M121992 107044
L121935 107072
L121821 107072
L121764 107044
L121735 106987
L121735 106758
L121764 106701
L121821 106672
L121935 106672
L121992 106701
L122021 106758
L122021 106815
L121735 106872
" />
<path d="M122507 107044
L122450 107072
L122335 107072
L122278 107044
L122250 106987
L122250 106758
L122278 106701
L122335 106672
L122450 106672
L122507 106701
L122535 106758
L122535 106815
L122250 106872
" />
<path d="M123050 106672
L123050 107158
L123021 107215
L122992 107244
L122935 107272
L122850 107272
L122792 107244
" />
<path d="M123050 107044
L122992 107072
L122878 107072
L122821 107044
L122792 107015
L122764 106958
L122764 106787
L122792 106730
L122821 106701
L122878 106672
L122992 106672
L123050 106701
" />
<path d="M123335 107015
L123364 107044
L123335 107072
L123307 107044
L123335 107015
L123335 107072
" />
<path d="M123621 107072
L123621 106472
" />
<path d="M123678 106844
L123850 107072
" />
<path d="M123850 106672
L123621 106901
" />
<path d="M124107 107072
L124107 106672
" />
<path d="M124107 106472
L124078 106501
L124107 106530
L124135 106501
L124107 106472
L124107 106530
" />
<path d="M124650 107044
L124592 107072
L124478 107072
L124421 107044
L124392 107015
L124364 106958
L124364 106787
L124392 106730
L124421 106701
L124478 106672
L124592 106672
L124650 106701
" />
<path d="M125164 107072
L125164 106758
L125135 106701
L125078 106672
L124964 106672
L124907 106701
" />
<path d="M125164 107044
L125107 107072
L124964 107072
L124907 107044
L124878 106987
L124878 106930
L124907 106872
L124964 106844
L125107 106844
L125164 106815
" />
<path d="M125707 107072
L125707 106472
" />
<path d="M125707 107044
L125650 107072
L125535 107072
L125478 107044
L125450 107015
L125421 106958
L125421 106787
L125450 106730
L125478 106701
L125535 106672
L125650 106672
L125707 106701
" />
<path d="M125850 107130
L126307 107130
" />
<path d="M126450 106672
L126450 107272
" />
<path d="M126450 106701
L126507 106672
L126621 106672
L126678 106701
L126707 106730
L126735 106787
L126735 106958
L126707 107015
L126678 107044
L126621 107072
L126507 107072
L126450 107044
" />
<path d="M127250 107044
L127192 107072
L127078 107072
L127021 107044
L126992 107015
L126964 106958
L126964 106787
L126992 106730
L127021 106701
L127078 106672
L127192 106672
L127250 106701
" />
<path d="M127507 107072
L127507 106472
" />
<path d="M127507 106701
L127564 106672
L127678 106672
L127735 106701
L127764 106730
L127792 106787
L127792 106958
L127764 107015
L127735 107044
L127678 107072
L127564 107072
L127507 107044
" />
<path d="M119364 108244
L119450 108272
L119592 108272
L119650 108244
L119678 108215
L119707 108158
L119707 108101
L119678 108044
L119650 108015
L119592 107987
L119478 107958
L119421 107930
L119392 107901
L119364 107844
L119364 107787
L119392 107730
L119421 107701
L119478 107672
L119621 107672
L119707 107701
" />
<path d="M119964 108272
L119964 107672
" />
<path d="M120221 108272
L120221 107958
L120192 107901
L120135 107872
L120050 107872
L119992 107901
L119964 107930
" />
<path d="M120735 108244
L120678 108272
L120564 108272
L120507 108244
L120478 108187
L120478 107958
L120507 107901
L120564 107872
L120678 107872
L120735 107901
L120764 107958
L120764 108015
L120478 108072
" />
<path d="M121250 108244
L121192 108272
L121078 108272
L121021 108244
L120992 108187
L120992 107958
L121021 107901
L121078 107872
L121192 107872
L121250 107901
L121278 107958
L121278 108015
L120992 108072
" />
<path d="M121450 107872
L121678 107872
" />
<path d="M121535 107672
L121535 108187
L121564 108244
L121621 108272
L121678 108272
" />
<path d="M121878 108215
L121907 108244
L121878 108272
L121850 108244
L121878 108215
L121878 108272
" />
<path d="M121878 107901
L121907 107930
L121878 107958
L121850 107930
L121878 107901
L121878 107958
" />
<path d="M118650 106230
L118650 112230
" />
<path d="M118650 106230
L160650 106230
" />
<path d="M118650 106230
L160650 106230
" />
<path d="M118650 108630
L160650 108630
" />
<path d="M151850 109830
L151850 112230
" />
<path d="M118650 111030
L160650 111030
" />
<path d="M118650 109830
L160650 109830
" />
<path d="M125250 109830
L125250 111030
" />
</g>
<g style="fill:#000000; fill-opacity:1.0; 
stroke:#000000; stroke-width:39.3701; stroke-opacity:1; 
stroke-linecap:round; stroke-linejoin:round;">
<circle cx="80595" cy="56761" r="157.315" /> 
<circle cx="82327" cy="56761" r="157.315" /> 
<polyline style="fill-rule:evenodd;"
points="84328,49488
84328,49843
84131,49843
84131,49488
84328,49488
" /> 
<polyline style="fill-rule:evenodd;"
points="83953,48656
83953,49011
83756,49011
83756,48656
83953,48656
" /> 
<polyline style="fill-rule:evenodd;"
points="83578,49488
83578,49843
83381,49843
83381,49488
83578,49488
" /> 
<polyline style="fill-rule:evenodd;"
points="84779,48454
85290,48454
85290,48965
84779,48965
84779,48454
" /> 
<circle cx="85035" cy="49710" r="255.315" /> 
<polyline style="fill-rule:evenodd;"
points="84389,52461
84389,51910
84940,51910
84940,52461
84389,52461
" /> 
<circle cx="83729" cy="47606" r="255.315" /> 
<polyline style="fill-rule:evenodd;"
points="81040,49976
80529,49976
80529,49665
81040,49665
81040,49976
" /> 
<polyline style="fill-rule:evenodd;"
points="81040,49226
80529,49226
80529,48915
81040,48915
81040,49226
" /> 
<polyline style="fill-rule:evenodd;"
points="86044,49752
85533,49752
85533,49441
86044,49441
86044,49752
" /> 
<polyline style="fill-rule:evenodd;"
points="86044,49002
85533,49002
85533,48691
86044,48691
86044,49002
" /> 
<polyline style="fill-rule:evenodd;"
points="83354,50575
83354,50064
83665,50064
83665,50575
83354,50575
" /> 
<polyline style="fill-rule:evenodd;"
points="84104,50575
84104,50064
84415,50064
84415,50575
84104,50575
" /> 
<polyline style="fill-rule:evenodd;"
points="83261,48120
83261,48631
82950,48631
82950,48120
83261,48120
" /> 
<polyline style="fill-rule:evenodd;"
points="82511,48120
82511,48631
82200,48631
82200,48120
82511,48120
" /> 
<polyline style="fill-rule:evenodd;"
points="82419,48915
82930,48915
82930,49226
82419,49226
82419,48915
" /> 
<polyline style="fill-rule:evenodd;"
points="82419,49665
82930,49665
82930,49976
82419,49976
82419,49665
" /> 
<polyline style="fill-rule:evenodd;"
points="84130,51878
83619,51878
83619,51567
84130,51567
84130,51878
" /> 
<polyline style="fill-rule:evenodd;"
points="84130,51128
83619,51128
83619,50817
84130,50817
84130,51128
" /> 
<polyline style="fill-rule:evenodd;"
points="84208,48214
84208,47663
84759,47663
84759,48214
84208,48214
" /> 
<circle cx="78295" cy="52040" r="480.315" /> 
</g>
<g style="fill:#000000; fill-opacity:1.0; 
stroke:#000000; stroke-width:100; stroke-opacity:1; 
stroke-linecap:round; stroke-linejoin:round;">
<path d="M80785 49821
L79094 49821
" />
<path d="M78295 50620
L78295 52040
" />
<path d="M79094 49821
L78295 50620
" />
<path d="M80785 49821
L82675 49821
" />
<path d="M82675 49821
L82675 50750
" />
<path d="M85035 50740
L85035 49710
" />
<path d="M84425 51350
L85035 50740
" />
<path d="M83275 51350
L84425 51350
" />
<path d="M82675 50750
L83275 51350
" />
<path d="M85789 49597
L85789 49602
" />
<path d="M85681 49710
L85035 49710
" />
<path d="M85789 49602
L85681 49710
" />
<path d="M80785 49071
L80785 48618
" />
<path d="M81027 48376
L82356 48376
" />
<path d="M80785 48618
L81027 48376
" />
<path d="M83875 51723
L83875 51990
" />
<path d="M84071 52186
L84665 52186
" />
<path d="M83875 51990
L84071 52186
" />
<path d="M84260 50320
L84260 50588
" />
<path d="M84260 50588
L83875 50973
" />
<path d="M84230 49666
L84230 50290
" />
<path d="M84230 50290
L84260 50320
" />
<path d="M83855 48834
L83269 48834
" />
<path d="M83269 48834
L83032 49071
" />
<path d="M83729 47606
L83399 47606
" />
<path d="M83106 47899
L83106 48376
" />
<path d="M83399 47606
L83106 47899
" />
<path d="M83106 48376
L83106 48997
" />
<path d="M83106 48997
L83032 49071
" />
<path d="M82675 49071
L83032 49071
" />
<path d="M84484 47939
L84715 47939
" />
<path d="M85035 48259
L85035 48710
" />
<path d="M84715 47939
L85035 48259
" />
<path d="M83480 49666
L83480 49578
" />
<path d="M84515 49230
L85035 48710
" />
<path d="M83828 49230
L84515 49230
" />
<path d="M83480 49578
L83828 49230
" />
<path d="M85789 48847
L85776 48847
" />
<path d="M85776 48847
L85639 48710
" />
<path d="M85639 48710
L85035 48710
" />
<path d="M83510 50320
L83510 50235
" />
<path d="M83480 50205
L83480 49666
" />
<path d="M83510 50235
L83480 50205
" />
</g>
<g style="fill:#000000; fill-opacity:1.0; 
stroke:#000000; stroke-width:39.3701; stroke-opacity:1; 
stroke-linecap:round; stroke-linejoin:round;">
<polyline style="fill-rule:evenodd;"
points="88215,60171
86319,60171
86319,49721
86319,49371
86281,49277
86225,49221
86280,49167
86319,49073
86319,48971
86319,48621
86281,48527
86209,48455
86115,48416
86013,48416
85699,48416
85639,48404
85565,48404
85565,48384
85527,48290
85455,48218
85361,48179
85325,48179
85317,48141
85251,48042
85251,48042
85035,47826
85035,47593
84996,47498
84924,47426
84830,47387
84728,47387
84213,47387
84179,47305
84030,47156
83835,47075
83623,47075
83428,47155
83279,47304
83267,47333
83182,47389
83116,47455
83081,47370
82964,47253
82812,47190
82646,47190
82493,47253
82376,47370
82313,47522
82313,47688
82376,47841
82384,47849
82357,47877
82357,48374
82365,48374
82365,48377
82357,48377
82357,48385
82354,48385
82354,48377
82354,48374
82354,47877
82279,47802
82121,47802
82012,47847
81928,47931
81882,48041
81882,48160
81882,48299
81957,48374
82354,48374
82354,48377
81957,48377
81882,48452
81882,48591
81882,48710
81928,48820
82012,48904
82121,48949
82144,48949
82144,49296
82182,49390
82238,49446
82183,49500
82177,49515
81928,49515
81987,49455
82050,49303
82050,49137
81987,48984
81870,48867
81718,48804
81552,48804
81399,48867
81358,48908
81358,48836
81313,48727
81229,48643
81119,48597
81000,48597
80861,48597
80786,48672
80786,49069
80794,49069
80794,49072
80786,49072
80786,49080
80783,49080
80783,49072
80783,49069
80783,48672
80708,48597
80569,48597
80450,48597
80340,48643
80256,48727
80211,48836
80211,48994
80286,49069
80783,49069
80783,49072
80286,49072
80211,49147
80211,49305
80256,49414
80318,49476
80293,49500
80287,49515
79094,49515
78976,49538
78877,49604
78877,49604
78877,49604
78078,50403
78012,50502
77989,50620
77989,51348
77867,51398
77654,51611
77539,51888
77538,52189
77653,52467
77866,52680
78143,52795
78444,52796
78722,52681
78935,52468
79050,52191
79051,51890
78936,51612
78723,51399
78600,51348
78600,50746
79220,50126
80287,50126
80292,50140
80364,50212
80458,50251
80560,50251
81110,50251
81204,50213
81276,50141
81282,50126
82177,50126
82182,50140
82254,50212
82348,50251
82369,50251
82369,50750
82392,50867
82458,50966
83058,51566
83157,51632
83275,51655
83310,51655
83376,51721
83873,51721
83873,51713
83876,51713
83876,51721
83884,51721
83884,51724
83876,51724
83876,52121
83951,52196
84090,52196
84137,52196
84071,52262
84071,52422
84071,52540
84116,52650
84200,52734
84310,52779
84588,52779
84663,52705
84663,52187
84655,52187
84655,52184
84663,52184
84663,51666
84594,51597
84641,51566
85251,50956
85317,50857
85340,50740
85340,50154
85468,50027
85564,50027
86114,50027
86208,49989
86280,49917
86319,49823
86319,49721
86319,60171
85505,60171
85505,53887
85505,52887
85442,52734
85325,52617
85241,52582
85258,52540
85258,52422
85258,51949
85258,51831
85213,51721
85129,51637
85019,51592
84741,51592
84666,51666
84666,52184
85184,52184
85258,52109
85258,51949
85258,52422
85258,52262
85184,52187
84666,52187
84666,52705
84725,52763
84674,52886
84674,53052
84737,53205
84854,53322
85006,53385
85172,53385
85325,53322
85442,53205
85505,53053
85505,52887
85505,53887
85442,53734
85325,53617
85173,53554
85007,53554
84854,53617
84737,53734
84674,53886
84674,54052
84737,54205
84854,54322
85006,54385
85172,54385
85325,54322
85442,54205
85505,54053
85505,53887
85505,60171
83873,60172
83873,52121
83873,51724
83376,51724
83301,51799
83301,51957
83346,52066
83430,52150
83540,52196
83659,52196
83798,52196
83873,52121
83873,60172
82759,60172
82759,56675
82694,56516
82572,56394
82413,56328
82241,56328
82082,56393
82050,56424
82050,53137
81987,52984
81870,52867
81718,52804
81552,52804
81399,52867
81282,52984
81219,53136
81219,53302
81282,53455
81399,53572
81551,53635
81717,53635
81870,53572
81987,53455
82050,53303
82050,53137
82050,56424
81960,56515
81894,56674
81894,56846
81959,57005
82081,57127
82240,57193
82412,57193
82571,57128
82693,57006
82759,56847
82759,56675
82759,60172
81027,60172
81027,56675
80962,56516
80840,56394
80830,56390
80830,54427
80767,54274
80650,54157
80498,54094
80332,54094
80179,54157
80062,54274
79999,54426
79999,54592
80062,54745
80179,54862
80331,54925
80497,54925
80650,54862
80767,54745
80830,54593
80830,54427
80830,56390
80681,56328
80509,56328
80350,56393
80228,56515
80162,56674
80162,56846
80227,57005
80349,57127
80508,57193
80680,57193
80839,57128
80961,57006
81027,56847
81027,56675
81027,60172
79830,60172
79830,54427
79767,54274
79650,54157
79498,54094
79332,54094
79179,54157
79062,54274
78999,54426
78999,54592
79062,54745
79179,54862
79331,54925
79497,54925
79650,54862
79767,54745
79830,54593
79830,54427
79830,60172
78851,60172
78851,53929
78766,53725
78610,53569
78406,53484
78184,53483
77980,53568
77824,53724
77739,53928
77738,54150
77823,54354
77979,54510
78183,54595
78405,54596
78609,54511
78765,54355
78850,54151
78851,53929
78851,60172
77888,60173
77888,55098
77825,54946
77709,54829
77557,54766
77393,54766
77241,54829
77124,54945
77061,55097
77061,55261
77124,55413
77240,55530
77392,55593
77556,55593
77708,55530
77825,55414
77888,55262
77888,55098
77888,60173
74705,60173
74709,46638
88209,46638
88215,60171
" /> 
</g>
<g style="fill:#000000; fill-opacity:0.0; 
stroke:#000000; stroke-width:196.85; stroke-opacity:1; 
stroke-linecap:round; stroke-linejoin:round;">
<polyline fill="none;"
points="88215,60171
86319,60171
86319,49721
86319,49371
86281,49277
86225,49221
86280,49167
86319,49073
86319,48971
86319,48621
86281,48527
86209,48455
86115,48416
86013,48416
85699,48416
85639,48404
85565,48404
85565,48384
85527,48290
85455,48218
85361,48179
85325,48179
85317,48141
85251,48042
85251,48042
85035,47826
85035,47593
84996,47498
84924,47426
84830,47387
84728,47387
84213,47387
84179,47305
84030,47156
83835,47075
83623,47075
83428,47155
83279,47304
83267,47333
83182,47389
83116,47455
83081,47370
82964,47253
82812,47190
82646,47190
82493,47253
82376,47370
82313,47522
82313,47688
82376,47841
82384,47849
82357,47877
82357,48374
82365,48374
82365,48377
82357,48377
82357,48385
82354,48385
82354,48377
82354,48374
82354,47877
82279,47802
82121,47802
82012,47847
81928,47931
81882,48041
81882,48160
81882,48299
81957,48374
82354,48374
82354,48377
81957,48377
81882,48452
81882,48591
81882,48710
81928,48820
82012,48904
82121,48949
82144,48949
82144,49296
82182,49390
82238,49446
82183,49500
82177,49515
81928,49515
81987,49455
82050,49303
82050,49137
81987,48984
81870,48867
81718,48804
81552,48804
81399,48867
81358,48908
81358,48836
81313,48727
81229,48643
81119,48597
81000,48597
80861,48597
80786,48672
80786,49069
80794,49069
80794,49072
80786,49072
80786,49080
80783,49080
80783,49072
80783,49069
80783,48672
80708,48597
80569,48597
80450,48597
80340,48643
80256,48727
80211,48836
80211,48994
80286,49069
80783,49069
80783,49072
80286,49072
80211,49147
80211,49305
80256,49414
80318,49476
80293,49500
80287,49515
79094,49515
78976,49538
78877,49604
78877,49604
78877,49604
78078,50403
78012,50502
77989,50620
77989,51348
77867,51398
77654,51611
77539,51888
77538,52189
77653,52467
77866,52680
78143,52795
78444,52796
78722,52681
78935,52468
79050,52191
79051,51890
78936,51612
78723,51399
78600,51348
78600,50746
79220,50126
80287,50126
80292,50140
80364,50212
80458,50251
80560,50251
81110,50251
81204,50213
81276,50141
81282,50126
82177,50126
82182,50140
82254,50212
82348,50251
82369,50251
82369,50750
82392,50867
82458,50966
83058,51566
83157,51632
83275,51655
83310,51655
83376,51721
83873,51721
83873,51713
83876,51713
83876,51721
83884,51721
83884,51724
83876,51724
83876,52121
83951,52196
84090,52196
84137,52196
84071,52262
84071,52422
84071,52540
84116,52650
84200,52734
84310,52779
84588,52779
84663,52705
84663,52187
84655,52187
84655,52184
84663,52184
84663,51666
84594,51597
84641,51566
85251,50956
85317,50857
85340,50740
85340,50154
85468,50027
85564,50027
86114,50027
86208,49989
86280,49917
86319,49823
86319,49721
86319,60171
85505,60171
85505,53887
85505,52887
85442,52734
85325,52617
85241,52582
85258,52540
85258,52422
85258,51949
85258,51831
85213,51721
85129,51637
85019,51592
84741,51592
84666,51666
84666,52184
85184,52184
85258,52109
85258,51949
85258,52422
85258,52262
85184,52187
84666,52187
84666,52705
84725,52763
84674,52886
84674,53052
84737,53205
84854,53322
85006,53385
85172,53385
85325,53322
85442,53205
85505,53053
85505,52887
85505,53887
85442,53734
85325,53617
85173,53554
85007,53554
84854,53617
84737,53734
84674,53886
84674,54052
84737,54205
84854,54322
85006,54385
85172,54385
85325,54322
85442,54205
85505,54053
85505,53887
85505,60171
83873,60172
83873,52121
83873,51724
83376,51724
83301,51799
83301,51957
83346,52066
83430,52150
83540,52196
83659,52196
83798,52196
83873,52121
83873,60172
82759,60172
82759,56675
82694,56516
82572,56394
82413,56328
82241,56328
82082,56393
82050,56424
82050,53137
81987,52984
81870,52867
81718,52804
81552,52804
81399,52867
81282,52984
81219,53136
81219,53302
81282,53455
81399,53572
81551,53635
81717,53635
81870,53572
81987,53455
82050,53303
82050,53137
82050,56424
81960,56515
81894,56674
81894,56846
81959,57005
82081,57127
82240,57193
82412,57193
82571,57128
82693,57006
82759,56847
82759,56675
82759,60172
81027,60172
81027,56675
80962,56516
80840,56394
80830,56390
80830,54427
80767,54274
80650,54157
80498,54094
80332,54094
80179,54157
80062,54274
79999,54426
79999,54592
80062,54745
80179,54862
80331,54925
80497,54925
80650,54862
80767,54745
80830,54593
80830,54427
80830,56390
80681,56328
80509,56328
80350,56393
80228,56515
80162,56674
80162,56846
80227,57005
80349,57127
80508,57193
80680,57193
80839,57128
80961,57006
81027,56847
81027,56675
81027,60172
79830,60172
79830,54427
79767,54274
79650,54157
79498,54094
79332,54094
79179,54157
79062,54274
78999,54426
78999,54592
79062,54745
79179,54862
79331,54925
79497,54925
79650,54862
79767,54745
79830,54593
79830,54427
79830,60172
78851,60172
78851,53929
78766,53725
78610,53569
78406,53484
78184,53483
77980,53568
77824,53724
77739,53928
77738,54150
77823,54354
77979,54510
78183,54595
78405,54596
78609,54511
78765,54355
78850,54151
78851,53929
78851,60172
77888,60173
77888,55098
77825,54946
77709,54829
77557,54766
77393,54766
77241,54829
77124,54945
77061,55097
77061,55261
77124,55413
77240,55530
77392,55593
77556,55593
77708,55530
77825,55414
77888,55262
77888,55098
77888,60173
74705,60173
74709,46638
88209,46638
88215,60171
" /> 
</g>
<g style="fill:#FFFFFF; fill-opacity:0.0; 
stroke:#FFFFFF; stroke-width:39.3701; stroke-opacity:1; 
stroke-linecap:round; stroke-linejoin:round;">
</g>
<g style="fill:#FFFFFF; fill-opacity:1.0; 
stroke:#FFFFFF; stroke-width:39.3701; stroke-opacity:1; 
stroke-linecap:round; stroke-linejoin:round;">
<circle cx="80595" cy="56761" r="157.315" /> 
<circle cx="82327" cy="56761" r="157.315" /> 
<circle cx="84665" cy="52186" r="137.795" /> 
<circle cx="77475" cy="55180" r="137.795" /> 
<circle cx="81635" cy="53220" r="140.315" /> 
<circle cx="81635" cy="49220" r="140.315" /> 
<circle cx="82729" cy="47606" r="140.315" /> 
<circle cx="83729" cy="47606" r="140.315" /> 
<circle cx="80415" cy="54510" r="140.315" /> 
<circle cx="79415" cy="54510" r="140.315" /> 
<circle cx="85090" cy="53970" r="140.315" /> 
<circle cx="85090" cy="52970" r="140.315" /> 
<circle cx="78295" cy="54040" r="280.315" /> 
<circle cx="78295" cy="52040" r="280.315" /> 
</g> 
</svg>
