<?xml version="1.0" standalone="no"?>
 <!DOCTYPE svg PUBLIC "-//W3C//DTD SVG 1.1//EN" 
 "http://www.w3.org/Graphics/SVG/1.1/DTD/svg11.dtd"> 
<svg xmlns="http://www.w3.org/2000/svg" version="1.1" 
    width="41.9989cm" height="29.7002cm" viewBox="0 0 165350 116930 ">
<title>SVG Picture created as eeg-F_Cu.svg date 2015/08/08 04:52:31 </title>
  <desc>Picture generated by PCBNEW </desc>
<g style="fill:#000000; fill-opacity:1;stroke:#000000; stroke-opacity:1;
stroke-linecap:round; stroke-linejoin:round; "
 transform="translate(0 0) scale(1 1)">
</g>
<g style="fill:#000000; fill-opacity:0.0; 
stroke:#000000; stroke-width:39.3701; stroke-opacity:1; 
stroke-linecap:round; stroke-linejoin:round;">
<path d="M4000 4000
L161350 4000
L161350 112930
L4000 112930
L4000 4000
" />
<path d="M4700 4700
L160650 4700
L160650 112230
L4700 112230
L4700 4700
" />
<path d="M26470 4000
L26470 4700
" />
<path d="M15382 4552
L15097 4552
" />
<path d="M15240 4552
L15240 4052
L15192 4123
L15144 4171
L15097 4195
" />
<path d="M26470 112930
L26470 112230
" />
<path d="M15382 112782
L15097 112782
" />
<path d="M15240 112782
L15240 112282
L15192 112353
L15144 112401
L15097 112425
" />
<path d="M48940 4000
L48940 4700
" />
<path d="M37567 4100
L37590 4076
L37638 4052
L37757 4052
L37805 4076
L37829 4100
L37852 4147
L37852 4195
L37829 4266
L37543 4552
L37852 4552
" />
<path d="M48940 112930
L48940 112230
" />
<path d="M37567 112330
L37590 112306
L37638 112282
L37757 112282
L37805 112306
L37829 112330
L37852 112377
L37852 112425
L37829 112496
L37543 112782
L37852 112782
" />
<path d="M71410 4000
L71410 4700
" />
<path d="M60013 4052
L60322 4052
L60156 4242
L60227 4242
L60275 4266
L60299 4290
L60322 4338
L60322 4457
L60299 4504
L60275 4528
L60227 4552
L60084 4552
L60037 4528
L60013 4504
" />
<path d="M71410 112930
L71410 112230
" />
<path d="M60013 112282
L60322 112282
L60156 112472
L60227 112472
L60275 112496
L60299 112520
L60322 112568
L60322 112687
L60299 112734
L60275 112758
L60227 112782
L60084 112782
L60037 112758
L60013 112734
" />
<path d="M93880 4000
L93880 4700
" />
<path d="M82745 4219
L82745 4552
" />
<path d="M82626 4028
L82507 4385
L82816 4385
" />
<path d="M93880 112930
L93880 112230
" />
<path d="M82745 112449
L82745 112782
" />
<path d="M82626 112258
L82507 112615
L82816 112615
" />
<path d="M116350 4000
L116350 4700
" />
<path d="M105239 4052
L105000 4052
L104977 4290
L105000 4266
L105048 4242
L105167 4242
L105215 4266
L105239 4290
L105262 4338
L105262 4457
L105239 4504
L105215 4528
L105167 4552
L105048 4552
L105000 4528
L104977 4504
" />
<path d="M116350 112930
L116350 112230
" />
<path d="M105239 112282
L105000 112282
L104977 112520
L105000 112496
L105048 112472
L105167 112472
L105215 112496
L105239 112520
L105262 112568
L105262 112687
L105239 112734
L105215 112758
L105167 112782
L105048 112782
L105000 112758
L104977 112734
" />
<path d="M138820 4000
L138820 4700
" />
<path d="M127685 4052
L127590 4052
L127542 4076
L127518 4100
L127470 4171
L127447 4266
L127447 4457
L127470 4504
L127494 4528
L127542 4552
L127637 4552
L127685 4528
L127709 4504
L127732 4457
L127732 4338
L127709 4290
L127685 4266
L127637 4242
L127542 4242
L127494 4266
L127470 4290
L127447 4338
" />
<path d="M138820 112930
L138820 112230
" />
<path d="M127685 112282
L127590 112282
L127542 112306
L127518 112330
L127470 112401
L127447 112496
L127447 112687
L127470 112734
L127494 112758
L127542 112782
L127637 112782
L127685 112758
L127709 112734
L127732 112687
L127732 112568
L127709 112520
L127685 112496
L127637 112472
L127542 112472
L127494 112496
L127470 112520
L127447 112568
" />
<path d="M149893 4052
L150226 4052
L150012 4552
" />
<path d="M149893 112282
L150226 112282
L150012 112782
" />
<path d="M4000 25780
L4700 25780
" />
<path d="M4230 14949
L4469 14949
" />
<path d="M4183 15092
L4350 14592
L4516 15092
" />
<path d="M161350 25780
L160650 25780
" />
<path d="M160880 14949
L161119 14949
" />
<path d="M160833 15092
L161000 14592
L161166 15092
" />
<path d="M4000 47560
L4700 47560
" />
<path d="M4385 36610
L4457 36634
L4480 36658
L4504 36705
L4504 36777
L4480 36824
L4457 36848
L4409 36872
L4219 36872
L4219 36372
L4385 36372
L4433 36396
L4457 36420
L4480 36467
L4480 36515
L4457 36562
L4433 36586
L4385 36610
L4219 36610
" />
<path d="M161350 47560
L160650 47560
" />
<path d="M161035 36610
L161107 36634
L161130 36658
L161154 36705
L161154 36777
L161130 36824
L161107 36848
L161059 36872
L160869 36872
L160869 36372
L161035 36372
L161083 36396
L161107 36420
L161130 36467
L161130 36515
L161107 36562
L161083 36586
L161035 36610
L160869 36610
" />
<path d="M4000 69340
L4700 69340
" />
<path d="M4504 58604
L4480 58628
L4409 58652
L4361 58652
L4290 58628
L4242 58580
L4219 58533
L4195 58438
L4195 58366
L4219 58271
L4242 58223
L4290 58176
L4361 58152
L4409 58152
L4480 58176
L4504 58200
" />
<path d="M161350 69340
L160650 69340
" />
<path d="M161154 58604
L161130 58628
L161059 58652
L161011 58652
L160940 58628
L160892 58580
L160869 58533
L160845 58438
L160845 58366
L160869 58271
L160892 58223
L160940 58176
L161011 58152
L161059 58152
L161130 58176
L161154 58200
" />
<path d="M4000 91120
L4700 91120
" />
<path d="M4219 80432
L4219 79932
L4338 79932
L4409 79956
L4457 80003
L4480 80051
L4504 80146
L4504 80218
L4480 80313
L4457 80360
L4409 80408
L4338 80432
L4219 80432
" />
<path d="M161350 91120
L160650 91120
" />
<path d="M160869 80432
L160869 79932
L160988 79932
L161059 79956
L161107 80003
L161130 80051
L161154 80146
L161154 80218
L161130 80313
L161107 80360
L161059 80408
L160988 80432
L160869 80432
" />
<path d="M4242 101950
L4409 101950
" />
<path d="M4480 102212
L4242 102212
L4242 101712
L4480 101712
" />
<path d="M160892 101950
L161059 101950
" />
<path d="M161130 102212
L160892 102212
L160892 101712
L161130 101712
" />
<path d="M127800 110672
L127875 110072
L128017 110072
L128100 110101
L128150 110158
L128171 110215
L128185 110330
L128175 110415
L128132 110530
L128096 110587
L128032 110644
L127942 110672
L127800 110672
" />
<path d="M128657 110672
L128696 110358
L128675 110301
L128621 110272
L128507 110272
L128446 110301
" />
<path d="M128660 110644
L128600 110672
L128457 110672
L128403 110644
L128382 110587
L128389 110530
L128425 110472
L128485 110444
L128628 110444
L128689 110415
" />
<path d="M128907 110272
L129135 110272
" />
<path d="M129017 110072
L128953 110587
L128975 110644
L129028 110672
L129085 110672
" />
<path d="M129517 110644
L129457 110672
L129342 110672
L129289 110644
L129267 110587
L129296 110358
L129332 110301
L129392 110272
L129507 110272
L129560 110301
L129582 110358
L129575 110415
L129282 110472
" />
<path d="M129807 110615
L129832 110644
L129800 110672
L129775 110644
L129807 110615
L129800 110672
" />
<path d="M129846 110301
L129871 110330
L129839 110358
L129814 110330
L129846 110301
L129839 110358
" />
<path d="M130671 110330
L130617 110301
L130592 110272
L130571 110215
L130575 110187
L130610 110130
L130642 110101
L130703 110072
L130817 110072
L130871 110101
L130896 110130
L130917 110187
L130914 110215
L130878 110272
L130846 110301
L130785 110330
L130671 110330
L130610 110358
L130578 110387
L130542 110444
L130528 110558
L130550 110615
L130575 110644
L130628 110672
L130742 110672
L130803 110644
L130835 110615
L130871 110558
L130885 110444
L130864 110387
L130839 110358
L130785 110330
" />
<path d="M131828 110672
L131867 110358
L131846 110301
L131792 110272
L131678 110272
L131617 110301
" />
<path d="M131832 110644
L131771 110672
L131628 110672
L131575 110644
L131553 110587
L131560 110530
L131596 110472
L131657 110444
L131800 110444
L131860 110415
" />
<path d="M132421 110272
L132371 110672
" />
<path d="M132164 110272
L132125 110587
L132146 110644
L132200 110672
L132285 110672
L132346 110644
L132378 110615
" />
<path d="M132964 110272
L132903 110758
L132867 110815
L132835 110844
L132775 110872
L132689 110872
L132635 110844
" />
<path d="M132917 110644
L132857 110672
L132742 110672
L132689 110644
L132664 110615
L132642 110558
L132664 110387
L132700 110330
L132732 110301
L132792 110272
L132907 110272
L132960 110301
" />
<path d="M133696 110130
L133728 110101
L133789 110072
L133932 110072
L133985 110101
L134010 110130
L134032 110187
L134025 110244
L133985 110330
L133600 110672
L133971 110672
" />
<path d="M134417 110072
L134475 110072
L134528 110101
L134553 110130
L134575 110187
L134589 110301
L134571 110444
L134528 110558
L134492 110615
L134460 110644
L134400 110672
L134342 110672
L134289 110644
L134264 110615
L134242 110558
L134228 110444
L134246 110301
L134289 110187
L134325 110130
L134357 110101
L134417 110072
" />
<path d="M135114 110672
L134771 110672
" />
<path d="M134942 110672
L135017 110072
L134950 110158
L134885 110215
L134825 110244
" />
<path d="M135732 110072
L135446 110072
L135382 110358
L135414 110330
L135475 110301
L135617 110301
L135671 110330
L135696 110358
L135717 110415
L135700 110558
L135664 110615
L135632 110644
L135571 110672
L135428 110672
L135375 110644
L135350 110615
" />
<path d="M119392 111872
L119392 111272
" />
<path d="M119735 111872
L119478 111530
" />
<path d="M119735 111272
L119392 111615
" />
<path d="M119992 111872
L119992 111472
" />
<path d="M119992 111272
L119964 111301
L119992 111330
L120021 111301
L119992 111272
L119992 111330
" />
<path d="M120621 111815
L120592 111844
L120507 111872
L120450 111872
L120364 111844
L120307 111787
L120278 111730
L120250 111615
L120250 111530
L120278 111415
L120307 111358
L120364 111301
L120450 111272
L120507 111272
L120592 111301
L120621 111330
" />
<path d="M121135 111872
L121135 111558
L121107 111501
L121050 111472
L120935 111472
L120878 111501
" />
<path d="M121135 111844
L121078 111872
L120935 111872
L120878 111844
L120850 111787
L120850 111730
L120878 111672
L120935 111644
L121078 111644
L121135 111615
" />
<path d="M121678 111872
L121678 111272
" />
<path d="M121678 111844
L121621 111872
L121507 111872
L121450 111844
L121421 111815
L121392 111758
L121392 111587
L121421 111530
L121450 111501
L121507 111472
L121621 111472
L121678 111501
" />
<path d="M122421 111558
L122621 111558
" />
<path d="M122707 111872
L122421 111872
L122421 111272
L122707 111272
" />
<path d="M122964 111815
L122992 111844
L122964 111872
L122935 111844
L122964 111815
L122964 111872
" />
<path d="M123249 111872
L123249 111272
L123392 111272
L123478 111301
L123535 111358
L123564 111415
L123592 111530
L123592 111615
L123564 111730
L123535 111787
L123478 111844
L123392 111872
L123249 111872
" />
<path d="M123849 111815
L123878 111844
L123849 111872
L123821 111844
L123849 111815
L123849 111872
" />
<path d="M124107 111701
L124392 111701
" />
<path d="M124049 111872
L124249 111272
L124449 111872
" />
<path d="M124649 111815
L124678 111844
L124649 111872
L124621 111844
L124649 111815
L124649 111872
" />
<path d="M152942 110672
L152778 110387
" />
<path d="M152600 110672
L152675 110072
L152903 110072
L152957 110101
L152982 110130
L153003 110187
L152992 110272
L152957 110330
L152925 110358
L152864 110387
L152635 110387
" />
<path d="M153432 110644
L153371 110672
L153257 110672
L153203 110644
L153182 110587
L153210 110358
L153246 110301
L153307 110272
L153421 110272
L153475 110301
L153496 110358
L153489 110415
L153196 110472
" />
<path d="M153707 110272
L153800 110672
L153992 110272
" />
<path d="M154178 110615
L154203 110644
L154171 110672
L154146 110644
L154178 110615
L154171 110672
" />
<path d="M154217 110301
L154242 110330
L154210 110358
L154185 110330
L154217 110301
L154210 110358
" />
<path d="M119364 110644
L119450 110672
L119592 110672
L119650 110644
L119678 110615
L119707 110558
L119707 110501
L119678 110444
L119650 110415
L119592 110387
L119478 110358
L119421 110330
L119392 110301
L119364 110244
L119364 110187
L119392 110130
L119421 110101
L119478 110072
L119621 110072
L119707 110101
" />
<path d="M119964 110672
L119964 110272
" />
<path d="M119964 110072
L119935 110101
L119964 110130
L119992 110101
L119964 110072
L119964 110130
" />
<path d="M120192 110272
L120507 110272
L120192 110672
L120507 110672
" />
<path d="M120964 110644
L120907 110672
L120792 110672
L120735 110644
L120707 110587
L120707 110358
L120735 110301
L120792 110272
L120907 110272
L120964 110301
L120992 110358
L120992 110415
L120707 110472
" />
<path d="M121250 110615
L121278 110644
L121250 110672
L121221 110644
L121250 110615
L121250 110672
" />
<path d="M121250 110301
L121278 110330
L121250 110358
L121221 110330
L121250 110301
L121250 110358
" />
<path d="M121964 110501
L122250 110501
" />
<path d="M121907 110672
L122107 110072
L122307 110672
" />
<path d="M122450 110072
L122821 110072
L122621 110301
L122707 110301
L122764 110330
L122792 110358
L122821 110415
L122821 110558
L122792 110615
L122764 110644
L122707 110672
L122535 110672
L122478 110644
L122450 110615
" />
<path d="M152592 111872
L152592 111272
" />
<path d="M153135 111872
L153135 111272
" />
<path d="M153135 111844
L153078 111872
L152964 111872
L152907 111844
L152878 111815
L152850 111758
L152850 111587
L152878 111530
L152907 111501
L152964 111472
L153078 111472
L153135 111501
" />
<path d="M153421 111815
L153450 111844
L153421 111872
L153392 111844
L153421 111815
L153421 111872
" />
<path d="M153421 111501
L153450 111530
L153421 111558
L153392 111530
L153421 111501
L153421 111558
" />
<path d="M154478 111872
L154135 111872
" />
<path d="M154307 111872
L154307 111272
L154249 111358
L154192 111415
L154135 111444
" />
<path d="M155164 111244
L154650 112015
" />
<path d="M155678 111872
L155335 111872
" />
<path d="M155507 111872
L155507 111272
L155449 111358
L155392 111415
L155335 111444
" />
<path d="M119389 108872
L119732 108872
" />
<path d="M119485 109472
L119560 108872
" />
<path d="M119857 109472
L119907 109072
" />
<path d="M119932 108872
L119900 108901
L119925 108930
L119957 108901
L119932 108872
L119925 108930
" />
<path d="M120107 109072
L120335 109072
" />
<path d="M120217 108872
L120153 109387
L120175 109444
L120228 109472
L120285 109472
" />
<path d="M120571 109472
L120517 109444
L120496 109387
L120560 108872
" />
<path d="M121032 109444
L120971 109472
L120857 109472
L120803 109444
L120782 109387
L120810 109158
L120846 109101
L120907 109072
L121021 109072
L121075 109101
L121096 109158
L121089 109215
L120796 109272
" />
<path d="M121321 109415
L121346 109444
L121314 109472
L121289 109444
L121321 109415
L121314 109472
" />
<path d="M121360 109101
L121385 109130
L121353 109158
L121328 109130
L121360 109101
L121353 109158
" />
<path d="M119592 106758
L119392 106758
" />
<path d="M119392 107072
L119392 106472
L119678 106472
" />
<path d="M119907 107072
L119907 106672
" />
<path d="M119907 106472
L119878 106501
L119907 106530
L119935 106501
L119907 106472
L119907 106530
" />
<path d="M120278 107072
L120221 107044
L120192 106987
L120192 106472
" />
<path d="M120735 107044
L120678 107072
L120564 107072
L120507 107044
L120478 106987
L120478 106758
L120507 106701
L120564 106672
L120678 106672
L120735 106701
L120764 106758
L120764 106815
L120478 106872
" />
<path d="M121021 107015
L121050 107044
L121021 107072
L120992 107044
L121021 107015
L121021 107072
" />
<path d="M121021 106701
L121050 106730
L121021 106758
L120992 106730
L121021 106701
L121021 106758
" />
<path d="M121992 107044
L121935 107072
L121821 107072
L121764 107044
L121735 106987
L121735 106758
L121764 106701
L121821 106672
L121935 106672
L121992 106701
L122021 106758
L122021 106815
L121735 106872
" />
<path d="M122507 107044
L122450 107072
L122335 107072
L122278 107044
L122250 106987
L122250 106758
L122278 106701
L122335 106672
L122450 106672
L122507 106701
L122535 106758
L122535 106815
L122250 106872
" />
<path d="M123050 106672
L123050 107158
L123021 107215
L122992 107244
L122935 107272
L122850 107272
L122792 107244
" />
<path d="M123050 107044
L122992 107072
L122878 107072
L122821 107044
L122792 107015
L122764 106958
L122764 106787
L122792 106730
L122821 106701
L122878 106672
L122992 106672
L123050 106701
" />
<path d="M123335 107015
L123364 107044
L123335 107072
L123307 107044
L123335 107015
L123335 107072
" />
<path d="M123621 107072
L123621 106472
" />
<path d="M123678 106844
L123850 107072
" />
<path d="M123850 106672
L123621 106901
" />
<path d="M124107 107072
L124107 106672
" />
<path d="M124107 106472
L124078 106501
L124107 106530
L124135 106501
L124107 106472
L124107 106530
" />
<path d="M124650 107044
L124592 107072
L124478 107072
L124421 107044
L124392 107015
L124364 106958
L124364 106787
L124392 106730
L124421 106701
L124478 106672
L124592 106672
L124650 106701
" />
<path d="M125164 107072
L125164 106758
L125135 106701
L125078 106672
L124964 106672
L124907 106701
" />
<path d="M125164 107044
L125107 107072
L124964 107072
L124907 107044
L124878 106987
L124878 106930
L124907 106872
L124964 106844
L125107 106844
L125164 106815
" />
<path d="M125707 107072
L125707 106472
" />
<path d="M125707 107044
L125650 107072
L125535 107072
L125478 107044
L125450 107015
L125421 106958
L125421 106787
L125450 106730
L125478 106701
L125535 106672
L125650 106672
L125707 106701
" />
<path d="M125850 107130
L126307 107130
" />
<path d="M126450 106672
L126450 107272
" />
<path d="M126450 106701
L126507 106672
L126621 106672
L126678 106701
L126707 106730
L126735 106787
L126735 106958
L126707 107015
L126678 107044
L126621 107072
L126507 107072
L126450 107044
" />
<path d="M127250 107044
L127192 107072
L127078 107072
L127021 107044
L126992 107015
L126964 106958
L126964 106787
L126992 106730
L127021 106701
L127078 106672
L127192 106672
L127250 106701
" />
<path d="M127507 107072
L127507 106472
" />
<path d="M127507 106701
L127564 106672
L127678 106672
L127735 106701
L127764 106730
L127792 106787
L127792 106958
L127764 107015
L127735 107044
L127678 107072
L127564 107072
L127507 107044
" />
<path d="M119364 108244
L119450 108272
L119592 108272
L119650 108244
L119678 108215
L119707 108158
L119707 108101
L119678 108044
L119650 108015
L119592 107987
L119478 107958
L119421 107930
L119392 107901
L119364 107844
L119364 107787
L119392 107730
L119421 107701
L119478 107672
L119621 107672
L119707 107701
" />
<path d="M119964 108272
L119964 107672
" />
<path d="M120221 108272
L120221 107958
L120192 107901
L120135 107872
L120050 107872
L119992 107901
L119964 107930
" />
<path d="M120735 108244
L120678 108272
L120564 108272
L120507 108244
L120478 108187
L120478 107958
L120507 107901
L120564 107872
L120678 107872
L120735 107901
L120764 107958
L120764 108015
L120478 108072
" />
<path d="M121250 108244
L121192 108272
L121078 108272
L121021 108244
L120992 108187
L120992 107958
L121021 107901
L121078 107872
L121192 107872
L121250 107901
L121278 107958
L121278 108015
L120992 108072
" />
<path d="M121450 107872
L121678 107872
" />
<path d="M121535 107672
L121535 108187
L121564 108244
L121621 108272
L121678 108272
" />
<path d="M121878 108215
L121907 108244
L121878 108272
L121850 108244
L121878 108215
L121878 108272
" />
<path d="M121878 107901
L121907 107930
L121878 107958
L121850 107930
L121878 107901
L121878 107958
" />
<path d="M118650 106230
L118650 112230
" />
<path d="M118650 106230
L160650 106230
" />
<path d="M118650 106230
L160650 106230
" />
<path d="M118650 108630
L160650 108630
" />
<path d="M151850 109830
L151850 112230
" />
<path d="M118650 111030
L160650 111030
" />
<path d="M118650 109830
L160650 109830
" />
<path d="M125250 109830
L125250 111030
" />
</g>
<g style="fill:#000000; fill-opacity:1.0; 
stroke:#000000; stroke-width:39.3701; stroke-opacity:1; 
stroke-linecap:round; stroke-linejoin:round;">
<polyline style="fill-rule:evenodd;"
points="80909,56171
80752,56171
80752,55304
80909,55304
80909,56171
" /> 
<polyline style="fill-rule:evenodd;"
points="81224,56171
81067,56171
81067,55304
81224,55304
81224,56171
" /> 
<polyline style="fill-rule:evenodd;"
points="81539,56171
81382,56171
81382,55304
81539,55304
81539,56171
" /> 
<polyline style="fill-rule:evenodd;"
points="81854,56171
81697,56171
81697,55304
81854,55304
81854,56171
" /> 
<polyline style="fill-rule:evenodd;"
points="82169,56171
82012,56171
82012,55304
82169,55304
82169,56171
" /> 
<polyline style="fill-rule:evenodd;"
points="80082,56249
79335,56249
79335,55304
80082,55304
80082,56249
" /> 
<polyline style="fill-rule:evenodd;"
points="80082,58414
79335,58414
79335,57469
80082,57469
80082,58414
" /> 
<polyline style="fill-rule:evenodd;"
points="83586,56249
82839,56249
82839,55304
83586,55304
83586,56249
" /> 
<polyline style="fill-rule:evenodd;"
points="83586,58414
82839,58414
82839,57469
83586,57469
83586,58414
" /> 
<circle cx="80595" cy="56761" r="157.315" /> 
<circle cx="82327" cy="56761" r="157.315" /> 
<polyline style="fill-rule:evenodd;"
points="79151,53593
79151,53238
79348,53238
79348,53593
79151,53593
" /> 
<polyline style="fill-rule:evenodd;"
points="79526,52761
79526,52406
79723,52406
79723,52761
79526,52761
" /> 
<polyline style="fill-rule:evenodd;"
points="79901,53593
79901,53238
80098,53238
80098,53593
79901,53593
" /> 
<polyline style="fill-rule:evenodd;"
points="83851,55833
83851,55478
84048,55478
84048,55833
83851,55833
" /> 
<polyline style="fill-rule:evenodd;"
points="84226,55001
84226,54646
84423,54646
84423,55001
84226,55001
" /> 
<polyline style="fill-rule:evenodd;"
points="84601,55833
84601,55478
84798,55478
84798,55833
84601,55833
" /> 
<polyline style="fill-rule:evenodd;"
points="81058,51079
81058,51590
80861,51590
80861,51079
81058,51079
" /> 
<polyline style="fill-rule:evenodd;"
points="81058,48979
81058,49490
80861,49490
80861,48979
81058,48979
" /> 
<polyline style="fill-rule:evenodd;"
points="80558,51079
80558,51590
80361,51590
80361,51079
80558,51079
" /> 
<polyline style="fill-rule:evenodd;"
points="80058,51079
80058,51590
79861,51590
79861,51079
80058,51079
" /> 
<polyline style="fill-rule:evenodd;"
points="79558,51079
79558,51590
79361,51590
79361,51079
79558,51079
" /> 
<polyline style="fill-rule:evenodd;"
points="80558,48979
80558,49490
80361,49490
80361,48979
80558,48979
" /> 
<polyline style="fill-rule:evenodd;"
points="80058,48979
80058,49490
79861,49490
79861,48979
80058,48979
" /> 
<polyline style="fill-rule:evenodd;"
points="79558,48979
79558,49490
79361,49490
79361,48979
79558,48979
" /> 
<polyline style="fill-rule:evenodd;"
points="82790,51493
82279,51493
82279,51296
82790,51296
82790,51493
" /> 
<polyline style="fill-rule:evenodd;"
points="84890,51493
84379,51493
84379,51296
84890,51296
84890,51493
" /> 
<polyline style="fill-rule:evenodd;"
points="82790,50993
82279,50993
82279,50796
82790,50796
82790,50993
" /> 
<polyline style="fill-rule:evenodd;"
points="82790,50493
82279,50493
82279,50296
82790,50296
82790,50493
" /> 
<polyline style="fill-rule:evenodd;"
points="82790,49993
82279,49993
82279,49796
82790,49796
82790,49993
" /> 
<polyline style="fill-rule:evenodd;"
points="84890,50993
84379,50993
84379,50796
84890,50796
84890,50993
" /> 
<polyline style="fill-rule:evenodd;"
points="84890,50493
84379,50493
84379,50296
84890,50296
84890,50493
" /> 
<polyline style="fill-rule:evenodd;"
points="84890,49993
84379,49993
84379,49796
84890,49796
84890,49993
" /> 
<polyline style="fill-rule:evenodd;"
points="78837,56765
78076,56765
78076,56204
78837,56204
78837,56765
" /> 
<polyline style="fill-rule:evenodd;"
points="78837,55465
78076,55465
78076,54904
78837,54904
78837,55465
" /> 
<polyline style="fill-rule:evenodd;"
points="84389,52461
84389,51910
84940,51910
84940,52461
84389,52461
" /> 
<polyline style="fill-rule:evenodd;"
points="77199,55455
77199,54904
77750,54904
77750,55455
77199,55455
" /> 
<circle cx="81635" cy="53220" r="280.315" /> 
<circle cx="81635" cy="49220" r="280.315" /> 
<polyline style="fill-rule:evenodd;"
points="82473,47861
82473,47350
82984,47350
82984,47861
82473,47861
" /> 
<circle cx="83729" cy="47606" r="255.315" /> 
<polyline style="fill-rule:evenodd;"
points="80670,54254
80670,54765
80159,54765
80159,54254
80670,54254
" /> 
<circle cx="79415" cy="54510" r="255.315" /> 
<polyline style="fill-rule:evenodd;"
points="85345,54225
84834,54225
84834,53714
85345,53714
85345,54225
" /> 
<circle cx="85090" cy="52970" r="255.315" /> 
<polyline style="fill-rule:evenodd;"
points="82775,51934
82775,52445
82464,52445
82464,51934
82775,51934
" /> 
<polyline style="fill-rule:evenodd;"
points="82025,51934
82025,52445
81714,52445
81714,51934
82025,51934
" /> 
<polyline style="fill-rule:evenodd;"
points="83054,49420
83054,48909
83365,48909
83365,49420
83054,49420
" /> 
<polyline style="fill-rule:evenodd;"
points="83804,49420
83804,48909
84115,48909
84115,49420
83804,49420
" /> 
<polyline style="fill-rule:evenodd;"
points="81876,50842
81365,50842
81365,50531
81876,50531
81876,50842
" /> 
<polyline style="fill-rule:evenodd;"
points="81876,50092
81365,50092
81365,49781
81876,49781
81876,50092
" /> 
<polyline style="fill-rule:evenodd;"
points="79454,48680
79454,48169
79765,48169
79765,48680
79454,48680
" /> 
<polyline style="fill-rule:evenodd;"
points="80204,48680
80204,48169
80515,48169
80515,48680
80204,48680
" /> 
<polyline style="fill-rule:evenodd;"
points="80483,52749
80994,52749
80994,53060
80483,53060
80483,52749
" /> 
<polyline style="fill-rule:evenodd;"
points="80483,53499
80994,53499
80994,53810
80483,53810
80483,53499
" /> 
<polyline style="fill-rule:evenodd;"
points="82804,54022
82293,54022
82293,53711
82804,53711
82804,54022
" /> 
<polyline style="fill-rule:evenodd;"
points="82804,53272
82293,53272
82293,52961
82804,52961
82804,53272
" /> 
<polyline style="fill-rule:evenodd;"
points="81855,48169
81855,48680
81544,48680
81544,48169
81855,48169
" /> 
<polyline style="fill-rule:evenodd;"
points="81105,48169
81105,48680
80794,48680
80794,48169
81105,48169
" /> 
<polyline style="fill-rule:evenodd;"
points="82256,48689
82256,48178
82567,48178
82567,48689
82256,48689
" /> 
<polyline style="fill-rule:evenodd;"
points="83006,48689
83006,48178
83317,48178
83317,48689
83006,48689
" /> 
<polyline style="fill-rule:evenodd;"
points="81904,55056
81393,55056
81393,54745
81904,54745
81904,55056
" /> 
<polyline style="fill-rule:evenodd;"
points="81904,54306
81393,54306
81393,53995
81904,53995
81904,54306
" /> 
<polyline style="fill-rule:evenodd;"
points="83947,52959
84458,52959
84458,53270
83947,53270
83947,52959
" /> 
<polyline style="fill-rule:evenodd;"
points="83947,53709
84458,53709
84458,54020
83947,54020
83947,53709
" /> 
<polyline style="fill-rule:evenodd;"
points="77684,49458
77684,48947
77995,48947
77995,49458
77684,49458
" /> 
<polyline style="fill-rule:evenodd;"
points="78434,49458
78434,48947
78745,48947
78745,49458
78434,49458
" /> 
<polyline style="fill-rule:evenodd;"
points="77478,49730
77989,49730
77989,50041
77478,50041
77478,49730
" /> 
<polyline style="fill-rule:evenodd;"
points="77478,50480
77989,50480
77989,50791
77478,50791
77478,50480
" /> 
<polyline style="fill-rule:evenodd;"
points="78960,50795
78449,50795
78449,50484
78960,50484
78960,50795
" /> 
<polyline style="fill-rule:evenodd;"
points="78960,50045
78449,50045
78449,49734
78960,49734
78960,50045
" /> 
<polyline style="fill-rule:evenodd;"
points="83538,54018
83027,54018
83027,53707
83538,53707
83538,54018
" /> 
<polyline style="fill-rule:evenodd;"
points="83538,53268
83027,53268
83027,52957
83538,52957
83538,53268
" /> 
<polyline style="fill-rule:evenodd;"
points="79819,47870
79819,47319
80370,47319
80370,47870
79819,47870
" /> 
<polyline style="fill-rule:evenodd;"
points="81004,47870
81004,47319
81555,47319
81555,47870
81004,47870
" /> 
<polyline style="fill-rule:evenodd;"
points="84419,49440
84419,48889
84970,48889
84970,49440
84419,49440
" /> 
<polyline style="fill-rule:evenodd;"
points="82164,49453
82164,48902
82715,48902
82715,49453
82164,49453
" /> 
<polyline style="fill-rule:evenodd;"
points="78629,47991
78629,47440
79180,47440
79180,47991
78629,47991
" /> 
<polyline style="fill-rule:evenodd;"
points="78775,54520
77814,54520
77814,53559
78775,53559
78775,54520
" /> 
<circle cx="78295" cy="52040" r="480.315" /> 
</g>
<g style="fill:#000000; fill-opacity:1.0; 
stroke:#000000; stroke-width:100; stroke-opacity:1; 
stroke-linecap:round; stroke-linejoin:round;">
<path d="M82620 52190
L82620 52365
" />
<path d="M80460 51902
L80460 51335
" />
<path d="M81362 52804
L80460 51902
" />
<path d="M82181 52804
L81362 52804
" />
<path d="M82620 52365
L82181 52804
" />
<path d="M78295 52040
L79532 52040
" />
<path d="M80460 51007
L80460 51335
" />
<path d="M80348 50895
L80460 51007
" />
<path d="M79822 50895
L80348 50895
" />
<path d="M79709 51008
L79822 50895
" />
<path d="M79709 51863
L79709 51008
" />
<path d="M79532 52040
L79709 51863
" />
<path d="M82620 52190
L82620 51480
" />
<path d="M82620 51480
L82535 51395
" />
<path d="M77734 50636
L78701 50636
" />
<path d="M78701 50636
L78705 50640
" />
<path d="M79460 51335
L79460 50863
" />
<path d="M82315 50895
L82535 50895
" />
<path d="M82049 51161
L82315 50895
" />
<path d="M82049 51579
L82049 51161
" />
<path d="M82234 51764
L82049 51579
" />
<path d="M82234 52497
L82234 51764
" />
<path d="M82103 52628
L82234 52497
" />
<path d="M81451 52628
L82103 52628
" />
<path d="M80717 51894
L81451 52628
" />
<path d="M80717 50843
L80717 51894
" />
<path d="M80543 50669
L80717 50843
" />
<path d="M79654 50669
L80543 50669
" />
<path d="M79460 50863
L79654 50669
" />
<path d="M85125 52980
L85125 52528
" />
<path d="M85125 52528
L85485 52168
" />
<path d="M85485 52168
L85485 48790
" />
<path d="M85485 48790
L85195 48500
" />
<path d="M85195 48500
L83835 48500
" />
<path d="M83835 48500
L83595 48740
" />
<path d="M83595 48740
L83595 50395
" />
<path d="M82535 50395
L83595 50395
" />
<path d="M83595 50395
L84635 50395
" />
<path d="M82535 50895
L82535 50395
" />
<path d="M78705 50640
L78705 51142
" />
<path d="M78898 51335
L79460 51335
" />
<path d="M78705 51142
L78898 51335
" />
<path d="M79250 53416
L79250 53315
" />
<path d="M79250 53315
L79257 52902
" />
<path d="M79257 52902
L77565 53000
" />
<path d="M77565 53000
L77216 52651
" />
<path d="M77216 52651
L77216 50445
" />
<path d="M77216 50445
L77391 50270
" />
<path d="M77391 50270
L78080 50270
" />
<path d="M78080 50270
L78226 50124
" />
<path d="M78226 50124
L78226 48779
" />
<path d="M78226 48779
L78380 48625
" />
<path d="M78380 48625
L78905 48625
" />
<path d="M78905 47716
L78905 48625
" />
<path d="M79250 53416
L79250 53608
" />
<path d="M79250 53608
L79415 53773
" />
<path d="M79415 53773
L79415 54510
" />
<path d="M84665 52186
L84665 53202
" />
<path d="M82360 56410
L81615 56410
" />
<path d="M82502 56268
L82360 56410
" />
<path d="M82502 55239
L82502 56268
" />
<path d="M82661 55080
L82502 55239
" />
<path d="M83624 55080
L82661 55080
" />
<path d="M83861 55317
L83624 55080
" />
<path d="M84149 55317
L83861 55317
" />
<path d="M84296 55464
L84149 55317
" />
<path d="M84296 55845
L84296 55464
" />
<path d="M84300 56364
L84296 55845
" />
<path d="M84971 56189
L84300 56364
" />
<path d="M85635 55300
L84971 56189
" />
<path d="M85635 53682
L85635 55300
" />
<path d="M85425 53472
L85635 53682
" />
<path d="M84935 53472
L85425 53472
" />
<path d="M84665 53202
L84935 53472
" />
<path d="M79427 54295
L79402 54295
" />
<path d="M80375 56410
L81615 56410
" />
<path d="M80235 56550
L80375 56410
" />
<path d="M79295 56550
L80235 56550
" />
<path d="M79085 56340
L79295 56550
" />
<path d="M79085 54612
L79085 56340
" />
<path d="M79402 54295
L79085 54612
" />
<path d="M81615 56410
L81776 56249
" />
<path d="M81776 56249
L81776 55738
" />
<path d="M84665 52186
L84879 52186
" />
<path d="M84940 49895
L84635 49895
" />
<path d="M85175 50130
L84940 49895
" />
<path d="M85175 51890
L85175 50130
" />
<path d="M84879 52186
L85175 51890
" />
<path d="M84695 49165
L84695 49835
" />
<path d="M84695 49835
L84635 49895
" />
<path d="M83960 49165
L84695 49165
" />
<path d="M84700 55656
L84700 55587
" />
<path d="M82093 54901
L81649 54901
" />
<path d="M82132 54862
L82093 54901
" />
<path d="M83705 54862
L82132 54862
" />
<path d="M83983 55140
L83705 54862
" />
<path d="M84253 55140
L83983 55140
" />
<path d="M84700 55587
L84253 55140
" />
<path d="M81649 54901
L80974 54901
" />
<path d="M80831 55044
L80831 55738
" />
<path d="M80974 54901
L80831 55044
" />
<path d="M84325 54824
L84214 54824
" />
<path d="M82281 54151
L81649 54151
" />
<path d="M82778 54648
L82281 54151
" />
<path d="M84038 54648
L82778 54648
" />
<path d="M84214 54824
L84038 54648
" />
<path d="M79625 52584
L79625 53720
" />
<path d="M79625 53720
L80415 54510
" />
<path d="M81649 54151
L81434 54151
" />
<path d="M81075 54510
L80415 54510
" />
<path d="M81434 54151
L81075 54510
" />
<path d="M80739 52905
L80739 52517
" />
<path d="M80739 52517
L79960 51738
" />
<path d="M79960 51738
L79960 51335
" />
<path d="M84656 53511
L85125 53980
" />
<path d="M84347 53511
L84656 53511
" />
<path d="M85125 54300
L85125 53980
" />
<path d="M84947 54478
L85125 54300
" />
<path d="M82847 54478
L84947 54478
" />
<path d="M80739 53655
L81205 53655
" />
<path d="M82096 53867
L82549 53867
" />
<path d="M81992 53763
L82096 53867
" />
<path d="M81313 53763
L81992 53763
" />
<path d="M81205 53655
L81313 53763
" />
<path d="M84203 53115
L84203 53367
" />
<path d="M84203 53367
L84347 53511
" />
<path d="M82549 53867
L82549 54180
" />
<path d="M82549 54180
L82847 54478
" />
<path d="M84635 50895
L83590 50895
" />
<path d="M83283 51202
L83283 53113
" />
<path d="M83590 50895
L83283 51202
" />
<path d="M82549 53117
L83279 53117
" />
<path d="M83279 53117
L83283 53113
" />
<path d="M81700 48425
L81700 47743
" />
<path d="M81552 47595
L81280 47595
" />
<path d="M81700 47743
L81552 47595
" />
<path d="M78705 49890
L78705 49318
" />
<path d="M78705 49318
L78590 49203
" />
<path d="M78705 49890
L80315 49890
" />
<path d="M80460 49745
L80460 49235
" />
<path d="M80315 49890
L80460 49745
" />
<path d="M80950 48425
L80950 48563
" />
<path d="M80950 48563
L80460 49053
" />
<path d="M80460 49053
L80460 49235
" />
<path d="M77840 49203
L77840 48465
" />
<path d="M80360 48285
L80360 48425
" />
<path d="M80675 47970
L80360 48285
" />
<path d="M80675 47250
L80675 47970
" />
<path d="M80515 47090
L80675 47250
" />
<path d="M78625 47090
L80515 47090
" />
<path d="M78345 47370
L78625 47090
" />
<path d="M78345 47960
L78345 47370
" />
<path d="M77840 48465
L78345 47960
" />
<path d="M77734 49886
L77734 49309
" />
<path d="M77734 49309
L77840 49203
" />
<path d="M80360 48425
L80360 48445
" />
<path d="M79960 48845
L79960 49235
" />
<path d="M80360 48445
L79960 48845
" />
<path d="M79610 48425
L79610 47857
" />
<path d="M79872 47595
L80095 47595
" />
<path d="M79610 47857
L79872 47595
" />
<path d="M81621 50687
L81621 51054
" />
<path d="M81340 51335
L80960 51335
" />
<path d="M81621 51054
L81340 51335
" />
<path d="M81621 49937
L81280 49937
" />
<path d="M80960 49617
L80960 49235
" />
<path d="M81280 49937
L80960 49617
" />
<path d="M82729 47606
L82810 47606
" />
<path d="M83162 47958
L83162 48434
" />
<path d="M82810 47606
L83162 47958
" />
<path d="M83210 49165
L83210 49690
" />
<path d="M83005 49895
L82535 49895
" />
<path d="M83210 49690
L83005 49895
" />
<path d="M81870 52190
L81870 51077
" />
<path d="M82194 49895
L82535 49895
" />
<path d="M82040 50049
L82194 49895
" />
<path d="M82040 50907
L82040 50049
" />
<path d="M81870 51077
L82040 50907
" />
<path d="M77475 55180
L77475 54280
" />
<path d="M77715 54040
L78295 54040
" />
<path d="M77475 54280
L77715 54040
" />
<path d="M77475 55180
L78515 55180
" />
<path d="M78515 55180
L78535 55160
" />
<path d="M83950 55656
L83950 56515
" />
<path d="M78457 56862
L78457 56485
" />
<path d="M78735 57140
L78457 56862
" />
<path d="M83325 57140
L78735 57140
" />
<path d="M83950 56515
L83325 57140
" />
<path d="M84635 51395
L84150 51395
" />
<path d="M83761 51784
L83761 53865
" />
<path d="M84150 51395
L83761 51784
" />
<path d="M84203 53865
L83761 53865
" />
<path d="M83761 53865
L83285 53865
" />
<path d="M83285 53865
L83283 53863
" />
<path d="M81635 53220
L81785 53220
" />
<path d="M83283 53626
L83283 53863
" />
<path d="M83147 53490
L83283 53626
" />
<path d="M82055 53490
L83147 53490
" />
<path d="M81785 53220
L82055 53490
" />
<path d="M81635 49220
L82398 49220
" />
<path d="M82398 49220
L82440 49178
" />
<path d="M82412 48434
L82412 49150
" />
<path d="M82412 49150
L82440 49178
" />
</g>
<g style="fill:#000000; fill-opacity:1.0; 
stroke:#000000; stroke-width:39.3701; stroke-opacity:1; 
stroke-linecap:round; stroke-linejoin:round;">
<polyline style="fill-rule:evenodd;"
points="79469,49236
79461,49236
79461,49244
79458,49244
79458,49236
79118,49236
79043,49311
79043,49451
79043,49464
79031,49459
79020,49459
79020,49427
79020,48877
78982,48783
78910,48711
78816,48672
78714,48672
78364,48672
78270,48710
78214,48766
78160,48711
78145,48705
78145,48591
78463,48273
78550,48309
78828,48309
78903,48235
78903,47717
78895,47717
78895,47714
78903,47714
78903,47706
78906,47706
78906,47714
78914,47714
78914,47717
78906,47717
78906,48235
78981,48309
79179,48309
79179,48703
79173,48706
79089,48790
79043,48899
79043,49018
79043,49158
79118,49233
79458,49233
79458,49225
79461,49225
79461,49233
79469,49233
79469,49236
" /> 
</g>
<g style="fill:#000000; fill-opacity:0.0; 
stroke:#000000; stroke-width:196.85; stroke-opacity:1; 
stroke-linecap:round; stroke-linejoin:round;">
<polyline fill="none;"
points="79469,49236
79461,49236
79461,49244
79458,49244
79458,49236
79118,49236
79043,49311
79043,49451
79043,49464
79031,49459
79020,49459
79020,49427
79020,48877
78982,48783
78910,48711
78816,48672
78714,48672
78364,48672
78270,48710
78214,48766
78160,48711
78145,48705
78145,48591
78463,48273
78550,48309
78828,48309
78903,48235
78903,47717
78895,47717
78895,47714
78903,47714
78903,47706
78906,47706
78906,47714
78914,47714
78914,47717
78906,47717
78906,48235
78981,48309
79179,48309
79179,48703
79173,48706
79089,48790
79043,48899
79043,49018
79043,49158
79118,49233
79458,49233
79458,49225
79461,49225
79461,49233
79469,49233
79469,49236
" /> 
</g>
<g style="fill:#000000; fill-opacity:1.0; 
stroke:#000000; stroke-width:39.3701; stroke-opacity:1; 
stroke-linecap:round; stroke-linejoin:round;">
<polyline style="fill-rule:evenodd;"
points="80060,55029
80051,55029
79664,55029
79721,55007
79757,54983
79774,54871
79415,54512
79409,54517
79407,54515
79412,54510
79407,54504
79409,54502
79415,54507
79420,54502
79422,54504
79417,54510
79776,54869
79888,54852
79889,54850
79922,54929
79994,55001
80060,55029
" /> 
</g>
<g style="fill:#000000; fill-opacity:0.0; 
stroke:#000000; stroke-width:196.85; stroke-opacity:1; 
stroke-linecap:round; stroke-linejoin:round;">
<polyline fill="none;"
points="80060,55029
80051,55029
79664,55029
79721,55007
79757,54983
79774,54871
79415,54512
79409,54517
79407,54515
79412,54510
79407,54504
79409,54502
79415,54507
79420,54502
79422,54504
79417,54510
79776,54869
79888,54852
79889,54850
79922,54929
79994,55001
80060,55029
" /> 
</g>
<g style="fill:#000000; fill-opacity:1.0; 
stroke:#000000; stroke-width:39.3701; stroke-opacity:1; 
stroke-linecap:round; stroke-linejoin:round;">
<polyline style="fill-rule:evenodd;"
points="80525,55040
80525,55044
80525,55130
80515,55139
80476,55233
80476,55335
80476,56241
80512,56328
80509,56328
80350,56393
80228,56515
80162,56674
80162,56834
79112,56834
79112,56734
79112,56428
79170,56485
79264,56524
79366,56524
80153,56524
80247,56486
80319,56414
80358,56320
80358,56218
80358,55234
80319,55140
80247,55068
80182,55040
80190,55040
80525,55040
" /> 
</g>
<g style="fill:#000000; fill-opacity:0.0; 
stroke:#000000; stroke-width:196.85; stroke-opacity:1; 
stroke-linecap:round; stroke-linejoin:round;">
<polyline fill="none;"
points="80525,55040
80525,55044
80525,55130
80515,55139
80476,55233
80476,55335
80476,56241
80512,56328
80509,56328
80350,56393
80228,56515
80162,56674
80162,56834
79112,56834
79112,56734
79112,56428
79170,56485
79264,56524
79366,56524
80153,56524
80247,56486
80319,56414
80358,56320
80358,56218
80358,55234
80319,55140
80247,55068
80182,55040
80190,55040
80525,55040
" /> 
</g>
<g style="fill:#000000; fill-opacity:1.0; 
stroke:#000000; stroke-width:39.3701; stroke-opacity:1; 
stroke-linecap:round; stroke-linejoin:round;">
<polyline style="fill-rule:evenodd;"
points="83507,56524
83198,56834
82759,56834
82759,56675
82694,56516
82572,56394
82413,56328
82409,56328
82445,56242
82445,56140
82445,55234
82418,55167
82591,55167
82563,55233
82563,55335
82563,56319
82602,56413
82674,56485
82768,56524
82870,56524
83507,56524
" /> 
</g>
<g style="fill:#000000; fill-opacity:0.0; 
stroke:#000000; stroke-width:196.85; stroke-opacity:1; 
stroke-linecap:round; stroke-linejoin:round;">
<polyline fill="none;"
points="83507,56524
83198,56834
82759,56834
82759,56675
82694,56516
82572,56394
82413,56328
82409,56328
82445,56242
82445,56140
82445,55234
82418,55167
82591,55167
82563,55233
82563,55335
82563,56319
82602,56413
82674,56485
82768,56524
82870,56524
83507,56524
" /> 
</g>
<g style="fill:#000000; fill-opacity:1.0; 
stroke:#000000; stroke-width:39.3701; stroke-opacity:1; 
stroke-linecap:round; stroke-linejoin:round;">
<polyline style="fill-rule:evenodd;"
points="84674,52187
84666,52187
84666,52195
84663,52195
84663,52187
84145,52187
84071,52262
84071,52422
84071,52540
84116,52650
84150,52684
84066,52684
84066,51910
84071,51906
84071,51949
84071,52109
84145,52184
84663,52184
84663,52176
84666,52176
84666,52184
84674,52184
84674,52187
" /> 
</g>
<g style="fill:#000000; fill-opacity:0.0; 
stroke:#000000; stroke-width:196.85; stroke-opacity:1; 
stroke-linecap:round; stroke-linejoin:round;">
<polyline fill="none;"
points="84674,52187
84666,52187
84666,52195
84663,52195
84663,52187
84145,52187
84071,52262
84071,52422
84071,52540
84116,52650
84150,52684
84066,52684
84066,51910
84071,51906
84071,51949
84071,52109
84145,52184
84663,52184
84663,52176
84666,52176
84666,52184
84674,52184
84674,52187
" /> 
</g>
<g style="fill:#000000; fill-opacity:1.0; 
stroke:#000000; stroke-width:39.3701; stroke-opacity:1; 
stroke-linecap:round; stroke-linejoin:round;">
<polyline style="fill-rule:evenodd;"
points="84704,49166
84696,49166
84696,49174
84693,49174
84693,49166
84358,49166
84175,49166
83961,49166
83961,49663
84036,49738
84061,49738
84061,49818
84135,49893
84633,49893
84633,49885
84636,49885
84636,49893
84644,49893
84644,49896
84636,49896
84636,49904
84633,49904
84633,49896
84135,49896
84061,49971
84061,50072
84068,50089
83900,50089
83900,49721
83958,49663
83958,49166
83950,49166
83950,49163
83958,49163
83958,49155
83961,49155
83961,49163
84175,49163
84358,49163
84693,49163
84693,49155
84696,49155
84696,49163
84704,49163
84704,49166
" /> 
</g>
<g style="fill:#000000; fill-opacity:0.0; 
stroke:#000000; stroke-width:196.85; stroke-opacity:1; 
stroke-linecap:round; stroke-linejoin:round;">
<polyline fill="none;"
points="84704,49166
84696,49166
84696,49174
84693,49174
84693,49166
84358,49166
84175,49166
83961,49166
83961,49663
84036,49738
84061,49738
84061,49818
84135,49893
84633,49893
84633,49885
84636,49885
84636,49893
84644,49893
84644,49896
84636,49896
84636,49904
84633,49904
84633,49896
84135,49896
84061,49971
84061,50072
84068,50089
83900,50089
83900,49721
83958,49663
83958,49166
83950,49166
83950,49163
83958,49163
83958,49155
83961,49155
83961,49163
84175,49163
84358,49163
84693,49163
84693,49155
84696,49155
84696,49163
84704,49163
84704,49166
" /> 
</g>
<g style="fill:#000000; fill-opacity:1.0; 
stroke:#000000; stroke-width:39.3701; stroke-opacity:1; 
stroke-linecap:round; stroke-linejoin:round;">
<polyline style="fill-rule:evenodd;"
points="88215,60171
85790,60171
85790,52168
85790,48790
85790,48789
85790,48789
85767,48672
85701,48573
85701,48573
85411,48283
85312,48217
85195,48194
83835,48194
83717,48217
83618,48283
83592,48309
83592,48124
83622,48136
83834,48136
84029,48056
84178,47907
84259,47712
84259,47500
84179,47305
84030,47156
83835,47075
83623,47075
83428,47155
83279,47304
83259,47351
83259,47280
83221,47186
83149,47114
83055,47075
82953,47075
82403,47075
82309,47113
82237,47185
82198,47279
82198,47381
82198,47903
82186,47903
82092,47941
82060,47973
82020,47933
82005,47927
82005,47743
81982,47625
81916,47526
81831,47441
81831,47249
81792,47154
81720,47082
81626,47043
81524,47043
80934,47043
80905,47055
80891,47033
80731,46873
80632,46807
80515,46784
78625,46784
78507,46807
78408,46873
78408,46873
78128,47153
78062,47252
78039,47370
78039,47833
77623,48248
77557,48347
77534,48465
77534,48705
77520,48710
77448,48782
77409,48876
77409,48978
77409,49455
77408,49455
77314,49493
77242,49565
77203,49659
77203,49761
77203,50111
77241,50205
77297,50261
77242,50315
77203,50409
77203,50511
77203,50861
77241,50955
77313,51027
77407,51066
77509,51066
78059,51066
78153,51028
78217,50964
78284,51031
78378,51070
78399,51070
78399,51142
78422,51259
78439,51284
78145,51283
77867,51398
77654,51611
77539,51888
77538,52189
77653,52467
77866,52680
78143,52795
78444,52796
78722,52681
78935,52468
78986,52345
79251,52345
79251,52437
79251,52831
79289,52925
79305,52941
79251,52995
79251,53414
79259,53414
79259,53417
79251,53417
79251,53836
79326,53911
79392,53911
79408,53935
79321,53932
79108,54012
79072,54036
79055,54148
79050,54143
79050,53902
79072,53911
79173,53911
79248,53836
79248,53417
79240,53417
79240,53414
79248,53414
79248,52995
79173,52920
79072,52920
78963,52965
78879,53049
78833,53159
78833,53278
78833,53284
78744,53284
77744,53284
77650,53322
77578,53394
77539,53488
77539,53590
77539,53796
77498,53823
77258,54063
77192,54162
77169,54280
77169,54628
77129,54628
77034,54667
76962,54739
76923,54833
76923,54935
76923,55525
76962,55620
77034,55692
77128,55731
77230,55731
77820,55731
77906,55696
77911,55701
78005,55740
78107,55740
78907,55740
79001,55702
79059,55644
79059,56025
79002,55968
78908,55929
78806,55929
78006,55929
77912,55967
77840,56039
77801,56133
77801,56235
77801,56835
77839,56929
77911,57001
78005,57040
78107,57040
78215,57040
78240,57078
78518,57356
78617,57422
78735,57445
79059,57445
79059,57500
79059,58484
79098,58578
79170,58650
79264,58689
79366,58689
80153,58689
80247,58651
80319,58579
80358,58485
80358,58383
80358,57445
82563,57445
82563,57500
82563,58484
82602,58578
82674,58650
82768,58689
82870,58689
83657,58689
83751,58651
83823,58579
83862,58485
83862,58383
83862,57399
83823,57305
83751,57233
83690,57207
84166,56731
84232,56632
84255,56515
84255,56027
84284,55998
84323,55904
84323,55802
84323,55643
84326,55645
84326,55903
84364,55997
84436,56069
84530,56108
84632,56108
84868,56108
84962,56070
85034,55998
85073,55904
85073,55802
85073,55408
85035,55314
84963,55242
84869,55203
84767,55203
84748,55203
84675,55129
84698,55072
84698,54970
84698,54783
84947,54783
85064,54760
85163,54694
85341,54516
85351,54500
85415,54500
85509,54462
85581,54390
85620,54296
85620,54194
85620,53644
85582,53550
85510,53478
85416,53439
85344,53439
85390,53420
85539,53271
85620,53076
85620,52864
85540,52669
85478,52607
85701,52384
85701,52384
85701,52384
85767,52285
85767,52285
85790,52168
85790,52168
85790,60171
74706,60173
74708,46640
88209,46640
88215,60171
" /> 
</g>
<g style="fill:#000000; fill-opacity:0.0; 
stroke:#000000; stroke-width:196.85; stroke-opacity:1; 
stroke-linecap:round; stroke-linejoin:round;">
<polyline fill="none;"
points="88215,60171
85790,60171
85790,52168
85790,48790
85790,48789
85790,48789
85767,48672
85701,48573
85701,48573
85411,48283
85312,48217
85195,48194
83835,48194
83717,48217
83618,48283
83592,48309
83592,48124
83622,48136
83834,48136
84029,48056
84178,47907
84259,47712
84259,47500
84179,47305
84030,47156
83835,47075
83623,47075
83428,47155
83279,47304
83259,47351
83259,47280
83221,47186
83149,47114
83055,47075
82953,47075
82403,47075
82309,47113
82237,47185
82198,47279
82198,47381
82198,47903
82186,47903
82092,47941
82060,47973
82020,47933
82005,47927
82005,47743
81982,47625
81916,47526
81831,47441
81831,47249
81792,47154
81720,47082
81626,47043
81524,47043
80934,47043
80905,47055
80891,47033
80731,46873
80632,46807
80515,46784
78625,46784
78507,46807
78408,46873
78408,46873
78128,47153
78062,47252
78039,47370
78039,47833
77623,48248
77557,48347
77534,48465
77534,48705
77520,48710
77448,48782
77409,48876
77409,48978
77409,49455
77408,49455
77314,49493
77242,49565
77203,49659
77203,49761
77203,50111
77241,50205
77297,50261
77242,50315
77203,50409
77203,50511
77203,50861
77241,50955
77313,51027
77407,51066
77509,51066
78059,51066
78153,51028
78217,50964
78284,51031
78378,51070
78399,51070
78399,51142
78422,51259
78439,51284
78145,51283
77867,51398
77654,51611
77539,51888
77538,52189
77653,52467
77866,52680
78143,52795
78444,52796
78722,52681
78935,52468
78986,52345
79251,52345
79251,52437
79251,52831
79289,52925
79305,52941
79251,52995
79251,53414
79259,53414
79259,53417
79251,53417
79251,53836
79326,53911
79392,53911
79408,53935
79321,53932
79108,54012
79072,54036
79055,54148
79050,54143
79050,53902
79072,53911
79173,53911
79248,53836
79248,53417
79240,53417
79240,53414
79248,53414
79248,52995
79173,52920
79072,52920
78963,52965
78879,53049
78833,53159
78833,53278
78833,53284
78744,53284
77744,53284
77650,53322
77578,53394
77539,53488
77539,53590
77539,53796
77498,53823
77258,54063
77192,54162
77169,54280
77169,54628
77129,54628
77034,54667
76962,54739
76923,54833
76923,54935
76923,55525
76962,55620
77034,55692
77128,55731
77230,55731
77820,55731
77906,55696
77911,55701
78005,55740
78107,55740
78907,55740
79001,55702
79059,55644
79059,56025
79002,55968
78908,55929
78806,55929
78006,55929
77912,55967
77840,56039
77801,56133
77801,56235
77801,56835
77839,56929
77911,57001
78005,57040
78107,57040
78215,57040
78240,57078
78518,57356
78617,57422
78735,57445
79059,57445
79059,57500
79059,58484
79098,58578
79170,58650
79264,58689
79366,58689
80153,58689
80247,58651
80319,58579
80358,58485
80358,58383
80358,57445
82563,57445
82563,57500
82563,58484
82602,58578
82674,58650
82768,58689
82870,58689
83657,58689
83751,58651
83823,58579
83862,58485
83862,58383
83862,57399
83823,57305
83751,57233
83690,57207
84166,56731
84232,56632
84255,56515
84255,56027
84284,55998
84323,55904
84323,55802
84323,55643
84326,55645
84326,55903
84364,55997
84436,56069
84530,56108
84632,56108
84868,56108
84962,56070
85034,55998
85073,55904
85073,55802
85073,55408
85035,55314
84963,55242
84869,55203
84767,55203
84748,55203
84675,55129
84698,55072
84698,54970
84698,54783
84947,54783
85064,54760
85163,54694
85341,54516
85351,54500
85415,54500
85509,54462
85581,54390
85620,54296
85620,54194
85620,53644
85582,53550
85510,53478
85416,53439
85344,53439
85390,53420
85539,53271
85620,53076
85620,52864
85540,52669
85478,52607
85701,52384
85701,52384
85701,52384
85767,52285
85767,52285
85790,52168
85790,52168
85790,60171
74706,60173
74708,46640
88209,46640
88215,60171
" /> 
</g>
<g style="fill:#FFFFFF; fill-opacity:0.0; 
stroke:#FFFFFF; stroke-width:39.3701; stroke-opacity:1; 
stroke-linecap:round; stroke-linejoin:round;">
</g>
<g style="fill:#FFFFFF; fill-opacity:1.0; 
stroke:#FFFFFF; stroke-width:39.3701; stroke-opacity:1; 
stroke-linecap:round; stroke-linejoin:round;">
<circle cx="80595" cy="56761" r="157.315" /> 
<circle cx="82327" cy="56761" r="157.315" /> 
<circle cx="84665" cy="52186" r="137.795" /> 
<circle cx="77475" cy="55180" r="137.795" /> 
<circle cx="81635" cy="53220" r="140.315" /> 
<circle cx="81635" cy="49220" r="140.315" /> 
<circle cx="82729" cy="47606" r="140.315" /> 
<circle cx="83729" cy="47606" r="140.315" /> 
<circle cx="80415" cy="54510" r="140.315" /> 
<circle cx="79415" cy="54510" r="140.315" /> 
<circle cx="85090" cy="53970" r="140.315" /> 
<circle cx="85090" cy="52970" r="140.315" /> 
<circle cx="78295" cy="54040" r="280.315" /> 
<circle cx="78295" cy="52040" r="280.315" /> 
</g> 
</svg>
